<svg width="24" height="24" viewBox="0 0 24 24" fill="none" xmlns="http://www.w3.org/2000/svg">
<rect width="24" height="24" rx="6" fill="#29AAEC"/>
<path d="M8.6 8.8L8.84234 8.66152C9.35818 8.36676 10 8.73922 10 9.33333L10 14.6667C10 15.2608 9.35818 15.6332 8.84234 15.3385L8.6 15.2L4.4 12.8C3.78099 12.4463 3.78099 11.5537 4.4 11.2L8.6 8.8Z" fill="white"/>
<path d="M15.4 8.8L15.1577 8.66152C14.6418 8.36676 14 8.73922 14 9.33333L14 14.6667C14 15.2608 14.6418 15.6332 15.1577 15.3385L15.4 15.2L19.6 12.8C20.219 12.4463 20.219 11.5537 19.6 11.2L15.4 8.8Z" fill="white"/>
</svg>
