<svg width="32" height="32" viewBox="0 0 32 32" fill="none" xmlns="http://www.w3.org/2000/svg">
<path fill-rule="evenodd" clip-rule="evenodd" d="M25.546 4.623C25.0706 4.58421 24.4847 4.58422 23.7642 4.58423H8.23691C7.51692 4.58422 6.93133 4.58421 6.45598 4.623C5.96486 4.66307 5.52613 4.74823 5.11743 4.95585L5.11624 4.95646C4.84544 5.09463 4.59581 5.26726 4.37304 5.46909H4.34026V5.49918C4.04956 5.76952 3.80619 6.09033 3.62328 6.44948C3.41464 6.858 3.32914 7.2969 3.28891 7.78784C3.24996 8.26317 3.24997 8.84887 3.24997 9.56875L3.24997 20.5831H2.66626C2.25205 20.5831 1.91626 20.9189 1.91626 21.3331L1.91626 22.431C1.91625 23.151 1.91625 23.7366 1.95503 24.2118C1.9951 24.7027 2.0803 25.1415 2.28815 25.5499C2.61559 26.1934 3.1391 26.7166 3.78258 27.044C4.19128 27.2517 4.63 27.3368 5.12112 27.3769C5.59647 27.4157 6.18206 27.4157 6.90205 27.4157H25.0978C25.8179 27.4157 26.4037 27.4157 26.8789 27.3771C27.3695 27.3372 27.8083 27.2524 28.2162 27.0452L28.218 27.0443C28.8608 26.7156 29.3836 26.1934 29.7106 25.5511C29.919 25.1423 30.0045 24.7033 30.0448 24.2122C30.0837 23.7367 30.0837 23.151 30.0837 22.4311V21.3331C30.0837 20.9189 29.7479 20.5831 29.3337 20.5831H28.75V9.56887C28.75 8.84888 28.75 8.2633 28.7112 7.78795C28.6711 7.29683 28.5855 6.85723 28.3779 6.44853C28.195 6.08966 27.9513 5.7683 27.6597 5.49751V5.46909H27.6287C27.4057 5.26704 27.1557 5.09417 26.8842 4.95612C26.4758 4.74823 26.037 4.66307 25.546 4.623ZM28 22.0842C27.986 22.0842 27.9721 22.0838 27.9583 22.0831H20.8834C20.5275 22.0831 20.4644 22.0877 20.4175 22.0986C20.3573 22.1137 20.3006 22.137 20.2455 22.1699C20.2048 22.1954 20.1563 22.2374 19.9052 22.4886L19.8217 22.572L19.8204 22.5733L19.7698 22.6238C19.5871 22.8063 19.413 22.9801 19.2043 23.108C19.0165 23.224 18.8138 23.3084 18.5986 23.359C18.3567 23.4163 18.1098 23.416 17.8407 23.4157L17.7828 23.4157H14.2171L14.1595 23.4157C13.891 23.416 13.6448 23.4162 13.4058 23.3609L13.3929 23.3578C13.1842 23.3057 12.9865 23.2239 12.8021 23.113L12.7915 23.1065C12.5849 22.9776 12.4117 22.8049 12.2236 22.6173L12.1795 22.5733L12.0948 22.4886C11.8421 22.2358 11.7945 22.1948 11.7537 22.1694C11.7002 22.1372 11.6441 22.1139 11.5828 22.0987C11.5358 22.0877 11.4734 22.0831 11.1165 22.0831H3.41626V22.3994C3.41626 23.1586 3.41684 23.6828 3.45006 24.0898C3.48256 24.488 3.5426 24.7077 3.62499 24.8695C3.80851 25.2302 4.1017 25.5234 4.46238 25.7069C4.62507 25.7895 4.84516 25.8494 5.24311 25.8819C5.65025 25.9151 6.17447 25.9157 6.93369 25.9157H25.0663C25.8254 25.9157 26.3501 25.9151 26.7574 25.882C27.1558 25.8496 27.3753 25.7899 27.5364 25.7081C27.8987 25.5225 28.1916 25.2285 28.3741 24.8701C28.457 24.7076 28.5172 24.4878 28.5498 24.0897C28.5831 23.6827 28.5837 23.1586 28.5837 22.3994V22.0831H28.0417C28.0279 22.0838 28.014 22.0842 28 22.0842ZM27.25 20.5831V9.60051C27.25 9.12891 27.2498 8.74798 27.2416 8.42946C27.028 8.88308 26.7362 9.30096 26.3749 9.66229C25.5522 10.4849 24.4365 10.9471 23.2731 10.9471C22.1097 10.9471 20.994 10.4849 20.1713 9.66229C19.9713 9.46221 19.7925 9.2448 19.6365 9.01357C19.4806 9.24479 19.3018 9.46221 19.1017 9.66229C18.2791 10.4849 17.1634 10.9471 16 10.9471C14.8366 10.9471 13.7208 10.4849 12.8982 9.66229C12.6981 9.46221 12.5194 9.2448 12.3634 9.01357C12.2074 9.2448 12.0287 9.46221 11.8286 9.66229C11.006 10.4849 9.89022 10.9471 8.72683 10.9471C7.56344 10.9471 6.4477 10.4849 5.62506 9.66229C5.26375 9.30098 4.97198 8.88314 4.75836 8.42955C4.7502 8.74796 4.74997 9.12886 4.74997 9.60051V20.5831H11.1165L11.1748 20.583C11.4425 20.5827 11.6914 20.5825 11.933 20.6402L11.9369 20.6411C12.1484 20.6928 12.3485 20.7756 12.5346 20.8887L12.5382 20.8909C12.7492 21.0207 12.9247 21.1967 13.1141 21.3865L13.1554 21.4279L13.2376 21.51C13.4843 21.7555 13.5372 21.8028 13.5807 21.8309C13.6334 21.8618 13.6891 21.885 13.7498 21.9008C13.7994 21.9115 13.8707 21.9157 14.2171 21.9157H17.7828C18.1446 21.9157 18.2041 21.911 18.2533 21.8993L18.2549 21.8989C18.3112 21.8857 18.364 21.864 18.4161 21.8317L18.4207 21.8288C18.4615 21.804 18.5029 21.7682 18.7616 21.5108L18.7624 21.51L18.8445 21.4279L18.8858 21.3865C19.0753 21.1967 19.2508 21.0207 19.4618 20.8909L19.4672 20.8876C19.6526 20.7756 19.8516 20.6931 20.0621 20.6413L20.0669 20.6402C20.3085 20.5825 20.5574 20.5827 20.8252 20.583L20.8834 20.5831H27.25ZM6.57797 6.11803C6.21401 6.14773 5.99882 6.20037 5.84026 6.2723V6.56051C5.84026 7.32608 6.14438 8.06029 6.68572 8.60163C7.22706 9.14297 7.96127 9.44709 8.72683 9.44709C9.4924 9.44709 10.2266 9.14297 10.7679 8.60163C11.3093 8.06029 11.6134 7.32608 11.6134 6.56051V6.08423H8.26855C7.50933 6.08423 6.98511 6.08481 6.57797 6.11803ZM13.1134 6.56051C13.1134 7.32608 13.4175 8.06029 13.9589 8.60163C14.5002 9.14297 15.2344 9.44709 16 9.44709C16.7655 9.44709 17.4998 9.14297 18.0411 8.60163C18.5824 8.06029 18.8865 7.32608 18.8865 6.56051V6.08423H13.1134V6.56051ZM20.3865 6.08423V6.56051C20.3865 7.32608 20.6907 8.06029 21.232 8.60163C21.7733 9.14297 22.5076 9.44709 23.2731 9.44709C24.0387 9.44709 24.7729 9.14297 25.3142 8.60163C25.8556 8.06029 26.1597 7.32608 26.1597 6.56051V6.27172C26.0019 6.20019 25.7874 6.14768 25.424 6.11803C25.0168 6.08481 24.4923 6.08423 23.7325 6.08423H20.3865Z" fill="#29AAEC"/>
</svg>
