<svg width="319" height="129" viewBox="0 0 319 129" fill="none" xmlns="http://www.w3.org/2000/svg">
<path d="M5.09074 61.4951C4.79859 61.4687 4.5619 61.347 4.38066 61.1299C4.19942 60.9127 4.12197 60.6581 4.1483 60.3659L5.36382 46.8806C5.39135 46.5752 5.51309 46.3385 5.72904 46.1705C5.94618 45.9893 6.20083 45.9118 6.49298 45.9381L17.09 46.8933C17.3954 46.9208 17.6321 47.0426 17.8001 47.2585C17.9825 47.4624 18.06 47.7171 18.0325 48.0225L16.8169 61.5078C16.7906 61.8 16.6689 62.0367 16.4517 62.2179C16.2479 62.4003 15.9932 62.4778 15.6878 62.4503C15.3956 62.4239 15.1589 62.3022 14.9777 62.085C14.7965 61.8679 14.719 61.6132 14.7453 61.3211L15.889 48.6325L7.3636 47.8641L6.2199 60.5526C6.19357 60.8448 6.07183 61.0815 5.85468 61.2627C5.65082 61.4452 5.39617 61.5226 5.09074 61.4951Z" fill="#222222"/>
<path d="M25.4398 63.4096C24.3641 63.3126 23.4356 62.9947 22.6542 62.4557C21.8739 61.9034 21.2819 61.194 20.878 60.3276C20.4887 59.4491 20.3425 58.472 20.4394 57.3964C20.5376 56.3075 20.8561 55.3723 21.3951 54.5909C21.9486 53.7974 22.6579 53.2053 23.5232 52.8147C24.3896 52.4109 25.3606 52.2574 26.4363 52.3544C27.4986 52.4502 28.4199 52.7742 29.2002 53.3264C29.9816 53.8654 30.567 54.5742 30.9564 55.4527C31.3602 56.3191 31.5131 57.2968 31.4149 58.3857C31.318 59.4613 30.9994 60.3965 30.4592 61.1912C29.9202 61.9727 29.2175 62.5653 28.3511 62.9692C27.4859 63.3597 26.5154 63.5065 25.4398 63.4096ZM25.6014 61.6169C26.2919 61.6791 26.9171 61.5748 27.477 61.304C28.0369 61.0331 28.4881 60.632 28.8305 60.1006C29.1862 59.5704 29.397 58.9401 29.4628 58.2097C29.5287 57.4794 29.434 56.8216 29.1788 56.2363C28.9382 55.6389 28.5666 55.157 28.0641 54.7904C27.5617 54.4238 26.9652 54.2094 26.2747 54.1471C25.5841 54.0849 24.9589 54.1892 24.399 54.46C23.8391 54.7308 23.3807 55.138 23.0238 55.6815C22.6681 56.2117 22.4573 56.842 22.3915 57.5724C22.3257 58.3027 22.4203 58.9606 22.6755 59.5458C22.9306 60.1311 23.3094 60.607 23.8119 60.9736C24.3143 61.3402 24.9108 61.5546 25.6014 61.6169Z" fill="#222222"/>
<path d="M38.8814 64.6212C37.819 64.5254 36.8911 64.2008 36.0976 63.6473C35.3185 63.0818 34.7271 62.3658 34.3232 61.4994C33.9339 60.6209 33.7864 59.6571 33.881 58.608C33.978 57.5323 34.2965 56.5972 34.8367 55.8025C35.3769 55.0077 36.073 54.4145 36.9249 54.0227C37.7781 53.6177 38.7292 53.4624 39.7783 53.557C40.5617 53.6276 41.2651 53.845 41.8882 54.209C42.5126 54.5598 43.0568 55.0574 43.5208 55.7016C43.6876 55.9309 43.7342 56.156 43.6608 56.3769C43.5873 56.5979 43.4233 56.7839 43.1687 56.935C42.9708 57.051 42.7608 57.079 42.5386 57.0188C42.3177 56.9453 42.1226 56.8072 41.9535 56.6046C41.365 55.8554 40.5861 55.4371 39.6167 55.3497C38.9394 55.2887 38.3275 55.3942 37.7808 55.6662C37.2354 55.9249 36.7915 56.32 36.4491 56.8514C36.1066 57.3828 35.9013 58.027 35.8331 58.7839C35.7685 59.501 35.8571 60.1516 36.099 60.7357C36.3541 61.321 36.7323 61.8035 37.2336 62.1834C37.736 62.55 38.3392 62.765 39.043 62.8284C39.5078 62.8703 39.9176 62.8537 40.2724 62.7786C40.6417 62.6914 40.9832 62.5414 41.2969 62.3288C41.525 62.1753 41.7525 62.1021 41.9794 62.1091C42.2075 62.1029 42.4014 62.1806 42.5608 62.3423C42.7698 62.5485 42.8768 62.7724 42.8818 63.0138C42.888 63.2419 42.7898 63.4406 42.5871 63.6097C41.5508 64.4133 40.3156 64.7504 38.8814 64.6212Z" fill="#222222"/>
<path d="M46.9277 65.2661C46.6355 65.2398 46.3983 65.1247 46.2158 64.9208C46.0479 64.7048 45.977 64.4508 46.0034 64.1586L46.8023 55.2946C46.8299 54.9892 46.945 54.7519 47.1477 54.5827C47.3636 54.4147 47.6176 54.3439 47.9098 54.3703C48.3347 54.4086 48.6747 54.6467 48.9298 55.0847L52.5162 61.4122L57.1764 55.828C57.5056 55.4427 57.8827 55.2692 58.3076 55.3075C58.6131 55.335 58.8504 55.4501 59.0195 55.6528C59.1887 55.8555 59.2595 56.1095 59.232 56.4149L58.433 65.279C58.4067 65.5712 58.2916 65.8084 58.0877 65.9909C57.885 66.16 57.631 66.2308 57.3255 66.2033C57.0334 66.177 56.7961 66.0619 56.6137 65.858C56.4457 65.6421 56.3749 65.388 56.4012 65.0959L57.0548 57.8453L57.5583 58.0513L53.4263 62.8999C53.0525 63.3348 52.673 63.5349 52.2879 63.5002C51.904 63.4522 51.573 63.1881 51.295 62.7078L48.1564 57.2038L48.6887 57.0912L48.0351 64.3418C48.0088 64.6339 47.8937 64.8712 47.6898 65.0537C47.4872 65.2228 47.2331 65.2936 46.9277 65.2661Z" fill="#222222"/>
<path d="M66.8539 67.1425C65.7783 67.0455 64.8497 66.7276 64.0683 66.1886C63.2881 65.6363 62.696 64.9269 62.2922 64.0605C61.9028 63.182 61.7566 62.205 61.8535 61.1293C61.9517 60.0404 62.2703 59.1052 62.8093 58.3238C63.3627 57.5303 64.0721 56.9382 64.9373 56.5477C65.8037 56.1438 66.7748 55.9904 67.8504 56.0873C68.9128 56.1831 69.8341 56.5071 70.6143 57.0594C71.3957 57.5984 71.9811 58.3071 72.3705 59.1856C72.7744 60.052 72.9272 61.0297 72.8291 62.1186C72.7321 63.1942 72.4135 64.1294 71.8733 64.9241C71.3343 65.7056 70.6316 66.2982 69.7652 66.7021C68.9 67.0926 67.9296 67.2394 66.8539 67.1425ZM67.0155 65.3498C67.706 65.412 68.3313 65.3077 68.8912 65.0369C69.4511 64.766 69.9022 64.3649 70.2447 63.8335C70.6004 63.3033 70.8111 62.673 70.877 61.9427C70.9428 61.2123 70.8481 60.5545 70.593 59.9692C70.3523 59.3718 69.9807 58.8899 69.4783 58.5233C68.9758 58.1567 68.3793 57.9423 67.6888 57.88C66.9983 57.8178 66.373 57.9221 65.8131 58.1929C65.2532 58.4637 64.7948 58.8709 64.4379 59.4144C64.0822 59.9446 63.8715 60.5749 63.8056 61.3053C63.7398 62.0356 63.8345 62.6935 64.0896 63.2787C64.3448 63.864 64.7236 64.3399 65.226 64.7065C65.7285 65.0731 66.325 65.2875 67.0155 65.3498Z" fill="#222222"/>
<path d="M89.663 69.1382C89.3708 69.1118 89.1335 68.9967 88.9511 68.7929C88.7831 68.5769 88.7123 68.3229 88.7386 68.0307L89.2521 62.3338C89.3275 61.4972 89.1774 60.8612 88.8016 60.4257C88.4271 59.9769 87.9078 59.7226 87.2438 59.6627C86.5533 59.6005 85.9607 59.7881 85.4661 60.2254C84.9848 60.664 84.7106 61.2551 84.6436 61.9987L82.9903 61.8497C83.0681 60.9865 83.3223 60.2464 83.7527 59.6292C84.1844 58.9987 84.749 58.5275 85.4465 58.2155C86.1572 57.9048 86.9442 57.7883 87.8074 57.8661C88.5643 57.9343 89.22 58.1607 89.7743 58.5454C90.3287 58.93 90.7359 59.4621 90.996 60.1415C91.2705 60.8088 91.3665 61.6007 91.2839 62.5169L90.7704 68.2138C90.7441 68.506 90.629 68.7433 90.4251 68.9257C90.2224 69.0949 89.9684 69.1657 89.663 69.1382ZM76.3768 67.9406C76.0847 67.9143 75.8474 67.7992 75.6649 67.5953C75.497 67.3794 75.4262 67.1253 75.4525 66.8332L76.2515 57.9691C76.279 57.6637 76.3941 57.4264 76.5968 57.2572C76.8127 57.0893 77.0668 57.0184 77.3589 57.0448C77.6643 57.0723 77.9016 57.1874 78.0708 57.3901C78.24 57.5927 78.3108 57.8468 78.2832 58.1522L77.4843 67.0163C77.4579 67.3084 77.3428 67.5457 77.139 67.7282C76.9363 67.8973 76.6822 67.9681 76.3768 67.9406ZM83.0298 68.5403C82.7377 68.5139 82.5004 68.3988 82.318 68.195C82.15 67.979 82.0792 67.725 82.1055 67.4328L82.619 61.7359C82.6944 60.8993 82.5443 60.2633 82.1685 59.8278C81.7939 59.379 81.2747 59.1247 80.6107 59.0648C79.9202 59.0026 79.3276 59.1902 78.833 59.6275C78.3384 60.0649 78.0576 60.6554 77.9906 61.3991L76.7357 61.2859C76.8135 60.4228 77.0543 59.6814 77.4582 59.0618C77.8634 58.429 78.3881 57.9542 79.0325 57.6374C79.6769 57.3206 80.3908 57.1976 81.1743 57.2682C81.9312 57.3364 82.5869 57.5629 83.1412 57.9475C83.6956 58.3322 84.1028 58.8642 84.3629 59.5436C84.6374 60.211 84.7334 61.0028 84.6508 61.9191L84.1373 67.616C84.111 67.9081 83.9959 68.1454 83.792 68.3278C83.5893 68.497 83.3353 68.5678 83.0298 68.5403Z" fill="#222222"/>
<path d="M94.6522 74.2668C94.3601 74.2404 94.1234 74.1187 93.9421 73.9015C93.773 73.6989 93.7016 73.4515 93.7279 73.1593L94.5466 64.0761C94.6545 63.0283 94.9851 62.1076 95.5386 61.314C96.0921 60.5205 96.802 59.9218 97.6684 59.518C98.5361 59.1009 99.4878 58.939 100.524 59.0323C101.573 59.1269 102.487 59.457 103.266 60.0225C104.046 60.5748 104.637 61.2908 105.04 62.1705C105.456 63.0514 105.617 64.0164 105.522 65.0654C105.428 66.1145 105.117 67.037 104.59 67.8329C104.077 68.6167 103.414 69.2196 102.6 69.6415C101.786 70.0502 100.895 70.2108 99.9255 70.1234C99.142 70.0528 98.4326 69.8282 97.7974 69.4497C97.1766 69.059 96.659 68.5639 96.2444 67.9643L95.7597 73.3425C95.7333 73.6346 95.6188 73.8653 95.4162 74.0344C95.2123 74.2168 94.9577 74.2943 94.6522 74.2668ZM99.6887 68.2948C100.366 68.3558 100.985 68.2509 101.544 67.9801C102.106 67.696 102.564 67.2888 102.92 66.7586C103.29 66.2163 103.507 65.5933 103.57 64.8895C103.635 64.1724 103.533 63.5206 103.264 62.9341C103.01 62.3356 102.632 61.853 102.13 61.4864C101.628 61.1066 101.039 60.8861 100.362 60.8251C99.698 60.7652 99.0788 60.8768 98.5044 61.1597C97.9445 61.4305 97.4861 61.8377 97.1292 62.3811C96.7735 62.9113 96.5634 63.535 96.4987 64.2521C96.4353 64.9559 96.5305 65.6071 96.7845 66.2056C97.0397 66.7909 97.4179 67.2735 97.9191 67.6533C98.4349 68.0211 99.0247 68.2349 99.6887 68.2948Z" fill="#222222"/>
<path d="M112.635 71.2891C111.718 71.2065 110.912 70.9397 110.217 70.4888C109.536 70.0258 109.017 69.3966 108.66 68.6014C108.316 67.8074 108.194 66.8592 108.294 65.757L108.735 60.8569C108.762 60.5648 108.876 60.3341 109.079 60.1649C109.296 59.9837 109.551 59.9063 109.843 59.9326C110.135 59.9589 110.365 60.0801 110.533 60.296C110.715 60.4999 110.794 60.7479 110.767 61.04L110.326 65.9402C110.258 66.6838 110.342 67.3139 110.577 67.8304C110.813 68.3336 111.159 68.7262 111.615 69.0083C112.073 69.2772 112.601 69.4385 113.198 69.4924C113.769 69.5439 114.284 69.4765 114.743 69.2902C115.214 69.1052 115.601 68.8321 115.901 68.4709C116.201 68.1097 116.373 67.6901 116.416 67.2121L117.671 67.3252C117.597 68.1485 117.324 68.8736 116.852 69.5005C116.394 70.1285 115.796 70.6034 115.057 70.9251C114.332 71.2479 113.524 71.3693 112.635 71.2891ZM117.046 71.5863C116.754 71.5599 116.516 71.4448 116.334 71.241C116.166 71.025 116.095 70.771 116.121 70.4788L116.922 61.5948C116.95 61.2894 117.065 61.0521 117.268 60.883C117.483 60.715 117.738 60.6442 118.03 60.6705C118.335 60.698 118.572 60.8131 118.742 61.0158C118.911 61.2185 118.982 61.4725 118.954 61.778L118.153 70.6619C118.127 70.9541 118.012 71.1914 117.808 71.3738C117.605 71.543 117.351 71.6138 117.046 71.5863Z" fill="#222222"/>
<path d="M135.94 73.3094C135.648 73.2831 135.411 73.168 135.228 72.9641C135.06 72.7482 134.99 72.4941 135.016 72.202L135.529 66.5051C135.605 65.6684 135.455 65.0324 135.079 64.5969C134.704 64.1481 134.185 63.8938 133.521 63.834C132.831 63.7717 132.238 63.9593 131.743 64.3967C131.262 64.8352 130.988 65.4263 130.921 66.17L129.268 66.021C129.345 65.1578 129.599 64.4176 130.03 63.8004C130.462 63.17 131.026 62.6988 131.724 62.3868C132.434 62.076 133.221 61.9595 134.085 62.0373C134.842 62.1055 135.497 62.332 136.052 62.7166C136.606 63.1013 137.013 63.6333 137.273 64.3128C137.548 64.9801 137.644 65.7719 137.561 66.6882L137.048 72.3851C137.021 72.6772 136.906 72.9145 136.702 73.097C136.5 73.2661 136.246 73.3369 135.94 73.3094ZM122.654 72.1119C122.362 72.0855 122.125 71.9704 121.942 71.7665C121.774 71.5506 121.703 71.2966 121.73 71.0044L122.529 62.1403C122.556 61.8349 122.671 61.5976 122.874 61.4285C123.09 61.2605 123.344 61.1897 123.636 61.216C123.942 61.2436 124.179 61.3587 124.348 61.5613C124.517 61.764 124.588 62.018 124.56 62.3235L123.762 71.1875C123.735 71.4797 123.62 71.717 123.416 71.8994C123.214 72.0686 122.959 72.1394 122.654 72.1119ZM129.307 72.7115C129.015 72.6852 128.778 72.5701 128.595 72.3662C128.427 72.1503 128.356 71.8962 128.383 71.6041L128.896 65.9072C128.972 65.0706 128.821 64.4345 128.446 63.999C128.071 63.5503 127.552 63.2959 126.888 63.2361C126.197 63.1739 125.605 63.3614 125.11 63.7988C124.616 64.2361 124.335 64.8267 124.268 65.5703L123.013 65.4572C123.091 64.594 123.332 63.8527 123.735 63.2331C124.141 62.6002 124.665 62.1254 125.31 61.8087C125.954 61.4919 126.668 61.3688 127.452 61.4394C128.208 61.5077 128.864 61.7341 129.418 62.1188C129.973 62.5034 130.38 63.0354 130.64 63.7149C130.915 64.3822 131.011 65.174 130.928 66.0903L130.415 71.7872C130.388 72.0794 130.273 72.3167 130.069 72.4991C129.867 72.6682 129.613 72.7391 129.307 72.7115Z" fill="#222222"/>
<path d="M145.446 74.2264C144.344 74.1271 143.382 73.8061 142.561 73.2635C141.754 72.7089 141.142 71.9977 140.725 71.1301C140.322 70.2504 140.169 69.2728 140.266 68.1971C140.364 67.1082 140.676 66.1724 141.202 65.3898C141.742 64.5951 142.438 64.0018 143.29 63.6101C144.143 63.205 145.094 63.0498 146.143 63.1443C147.179 63.2377 148.048 63.5503 148.75 64.0821C149.453 64.6006 149.96 65.2823 150.272 66.127C150.599 66.9597 150.715 67.9006 150.62 68.9497C150.598 69.202 150.492 69.4067 150.304 69.5638C150.117 69.7075 149.891 69.7675 149.625 69.7435L141.598 69.02L141.741 67.4264L149.709 68.1446L148.842 68.6287C148.889 67.9636 148.809 67.3607 148.603 66.82C148.399 66.2661 148.078 65.8155 147.641 65.4681C147.204 65.1208 146.653 64.9172 145.989 64.8574C145.232 64.7892 144.566 64.8965 143.992 65.1794C143.431 65.4635 142.985 65.8852 142.653 66.4443C142.323 66.9902 142.125 67.6283 142.059 68.3587C141.993 69.0891 142.1 69.7547 142.381 70.3557C142.661 70.9566 143.079 71.4494 143.633 71.8341C144.188 72.2187 144.843 72.4452 145.6 72.5134C146.012 72.5505 146.437 72.5152 146.875 72.4074C147.327 72.2875 147.696 72.14 147.979 71.9647C148.191 71.8366 148.41 71.7827 148.636 71.8031C148.876 71.8113 149.076 71.8963 149.236 72.0579C149.444 72.2775 149.543 72.5074 149.535 72.7476C149.527 72.9878 149.402 73.1841 149.161 73.3363C148.677 73.6542 148.086 73.8955 147.389 74.0602C146.704 74.2261 146.057 74.2815 145.446 74.2264Z" fill="#222222"/>
<path d="M10.6845 88.1047C10.3924 88.0784 10.1551 87.9633 9.97265 87.7594C9.80469 87.5434 9.73388 87.2894 9.76021 86.9972L10.5592 78.1332C10.5867 77.8277 10.7018 77.5904 10.9045 77.4213C11.1204 77.2533 11.3745 77.1825 11.6666 77.2089C11.9721 77.2364 12.2027 77.3509 12.3586 77.5524C12.5145 77.7538 12.5786 78.0073 12.5511 78.3127L11.7521 87.1768C11.7258 87.4689 11.6173 87.7068 11.4268 87.8905C11.2374 88.0608 10.99 88.1322 10.6845 88.1047ZM2.49771 87.3668C2.20557 87.3404 1.97491 87.2259 1.80576 87.0233C1.65108 86.8085 1.58691 86.555 1.61324 86.2629L2.41221 77.3988C2.43974 77.0934 2.5482 76.8555 2.73759 76.6852C2.94026 76.516 3.18767 76.4446 3.47982 76.4709C3.78525 76.4985 4.02254 76.6136 4.1917 76.8162C4.36085 77.0189 4.43167 77.2729 4.40414 77.5784L3.60516 86.4424C3.57883 86.7346 3.46373 86.9719 3.25986 87.1543C3.05719 87.3235 2.80314 87.3943 2.49771 87.3668ZM3.68376 82.6743L3.84535 80.8816L10.837 81.5117L10.6754 83.3045L3.68376 82.6743Z" fill="#222222"/>
<path d="M19.7895 89.0057C18.8201 88.9183 17.9718 88.6009 17.2447 88.0534C16.5188 87.4926 15.9671 86.7802 15.5899 85.9162C15.227 85.0401 15.0929 84.0775 15.1875 83.0284C15.282 81.9793 15.606 81.058 16.1595 80.2645C16.7263 79.4722 17.4429 78.8741 18.3093 78.4703C19.1902 78.0543 20.1485 77.8931 21.1843 77.9864C22.2201 78.0798 23.1275 78.4092 23.9066 78.9748C24.6868 79.5271 25.2783 80.243 25.6809 81.1228C26.0969 82.0036 26.2575 82.9686 26.163 84.0177L25.3861 83.9477C25.2916 84.9968 24.9808 85.9193 24.4539 86.7152C23.9415 87.499 23.278 88.1019 22.4635 88.5238C21.6502 88.9324 20.7589 89.0931 19.7895 89.0057ZM20.3494 87.2489C21.0267 87.3099 21.6453 87.205 22.2052 86.9342C22.7663 86.6501 23.2247 86.2429 23.5804 85.7127C23.9373 85.1692 24.1475 84.5456 24.2109 83.8418C24.2755 83.1247 24.1803 82.4735 23.9251 81.8882C23.6712 81.2897 23.2929 80.8071 22.7905 80.4405C22.2892 80.0607 21.7 79.8402 21.0227 79.7791C20.3588 79.7193 19.7396 79.8308 19.1652 80.1137C18.6053 80.3846 18.1402 80.7911 17.7701 81.3334C17.4144 81.8636 17.2042 82.4873 17.1396 83.2044C17.0761 83.9082 17.1714 84.5594 17.4253 85.1579C17.6938 85.7444 18.0786 86.2276 18.5799 86.6074C19.0956 86.9752 19.6855 87.189 20.3494 87.2489ZM24.6551 89.384C24.363 89.3577 24.1257 89.2426 23.9433 89.0387C23.7753 88.8228 23.7045 88.5687 23.7308 88.2766L24.0055 85.2289L24.5743 83.1516L26.163 84.0177L25.7626 88.4597C25.7363 88.7519 25.6145 88.9886 25.3974 89.1698C25.1947 89.3389 24.9473 89.4104 24.6551 89.384Z" fill="#222222"/>
<path d="M38.9642 90.7742C38.2073 90.706 37.5516 90.4795 36.9973 90.0949C36.4429 89.7102 36.0284 89.1842 35.7539 88.5169C35.4938 87.8375 35.4051 87.0396 35.4877 86.1233L36.0012 80.4264C36.0287 80.121 36.1438 79.8837 36.3465 79.7145C36.5624 79.5466 36.8165 79.4758 37.1086 79.5021C37.4141 79.5296 37.6514 79.6447 37.8205 79.8474C37.9897 80.0501 38.0605 80.3041 38.033 80.6095L37.5195 86.3065C37.4692 86.8642 37.5203 87.3374 37.6727 87.7259C37.8262 88.1012 38.0607 88.3968 38.3759 88.6126C38.7056 88.8164 39.0896 88.938 39.5278 88.9775C40.2316 89.041 40.8242 88.8534 41.3055 88.4148C41.8001 87.9775 42.0803 87.3936 42.1461 86.6632L43.0026 86.7404C42.926 87.5903 42.6985 88.3329 42.3199 88.9681C41.9558 89.5913 41.4848 90.0643 40.9068 90.387C40.3288 90.7098 39.6813 90.8388 38.9642 90.7742ZM32.3311 90.1763C31.5742 90.1081 30.9185 89.8816 30.3642 89.497C29.8231 89.1135 29.4152 88.5881 29.1407 87.9208C28.8674 87.2402 28.772 86.4417 28.8546 85.5254L29.3681 79.8285C29.3956 79.5231 29.5107 79.2858 29.7134 79.1167C29.9293 78.9487 30.1834 78.8779 30.4755 78.9042C30.781 78.9317 31.0183 79.0468 31.1874 79.2495C31.3566 79.4522 31.4274 79.7062 31.3999 80.0117L30.8864 85.7086C30.8361 86.2663 30.8871 86.7395 31.0395 87.1281C31.2064 87.5046 31.4475 87.8007 31.7627 88.0166C32.0791 88.2191 32.4565 88.3401 32.8947 88.3796C33.5985 88.4431 34.1911 88.2555 34.6724 87.817C35.1537 87.3784 35.4273 86.7939 35.4931 86.0636L36.3496 86.1408C36.273 86.9906 36.0521 87.7338 35.6868 88.3703C35.3227 88.9934 34.8517 89.4664 34.2737 89.7891C33.6957 90.1119 33.0482 90.2409 32.3311 90.1763ZM42.7796 90.9976C42.4874 90.9713 42.2501 90.8562 42.0677 90.6523C41.8997 90.4363 41.8289 90.1823 41.8553 89.8902L42.6542 81.0261C42.6818 80.7207 42.7969 80.4834 42.9995 80.3142C43.2155 80.1463 43.4695 80.0754 43.7617 80.1018C44.0671 80.1293 44.3044 80.2444 44.4735 80.4471C44.6427 80.6498 44.7135 80.9038 44.686 81.2092L43.887 90.0733C43.8607 90.3654 43.7456 90.6027 43.5417 90.7852C43.339 90.9543 43.085 91.0251 42.7796 90.9976Z" fill="#222222"/>
<path d="M52.5025 91.9543C51.4003 91.855 50.4385 91.534 49.6173 90.9914C48.8105 90.4367 48.1985 89.7256 47.7814 88.858C47.3787 87.9783 47.2259 87.0006 47.3228 85.925C47.421 84.8361 47.7329 83.9003 48.2586 83.1177C48.7988 82.3229 49.4949 81.7297 50.3468 81.3379C51.2 80.9329 52.1511 80.7776 53.2002 80.8722C54.236 80.9656 55.1047 81.2782 55.8065 81.81C56.5094 82.3285 57.017 83.0101 57.3291 83.8549C57.6556 84.6876 57.7716 85.6285 57.6771 86.6775C57.6543 86.9298 57.5489 87.1345 57.3607 87.2916C57.1737 87.4354 56.9474 87.4953 56.6818 87.4714L48.6543 86.7478L48.798 85.1543L56.7657 85.8725L55.8987 86.3566C55.9453 85.6914 55.8657 85.0885 55.6601 84.5479C55.4557 83.994 55.1348 83.5433 54.6976 83.196C54.2603 82.8487 53.7097 82.6451 53.0457 82.5853C52.2888 82.517 51.6232 82.6244 51.0488 82.9073C50.4877 83.1914 50.0413 83.613 49.7098 84.1722C49.3795 84.7181 49.1814 85.3562 49.1156 86.0866C49.0497 86.8169 49.1571 87.4826 49.4376 88.0835C49.7181 88.6845 50.1355 89.1773 50.6899 89.5619C51.2443 89.9466 51.8999 90.173 52.6569 90.2413C53.0685 90.2784 53.4934 90.243 53.9315 90.1353C54.3841 90.0154 54.7522 89.8678 55.0357 89.6926C55.2481 89.5645 55.4672 89.5106 55.6929 89.5309C55.9331 89.5392 56.133 89.6242 56.2924 89.7858C56.5002 90.0053 56.6 90.2352 56.5917 90.4754C56.5835 90.7157 56.4587 90.9119 56.2174 91.0642C55.7336 91.3821 55.1428 91.6233 54.4452 91.788C53.7609 91.954 53.1133 92.0094 52.5025 91.9543Z" fill="#222222"/>
<path d="M63.1213 92.9115C62.2847 92.836 61.5458 92.6423 60.9045 92.3301C60.2778 92.0059 59.7928 91.594 59.4496 91.0945C59.1197 90.5962 58.9816 90.0483 59.0355 89.4507C59.0893 88.8531 59.3014 88.3568 59.6717 87.9618C60.0553 87.568 60.5789 87.2537 61.2427 87.019C61.9197 86.7855 62.7175 86.6231 63.6361 86.5319C64.5558 86.4274 65.1865 86.2633 65.5279 86.0397C65.8705 85.8029 66.0604 85.4786 66.0975 85.067C66.1358 84.642 65.9515 84.3108 65.5445 84.0733C65.1387 83.8225 64.6569 83.672 64.0992 83.6217C63.6344 83.5798 63.1631 83.611 62.6851 83.7152C62.2204 83.8205 61.8228 83.9989 61.4923 84.2502C61.2763 84.4182 61.0458 84.5246 60.8008 84.5695C60.5558 84.6143 60.3644 84.5837 60.2267 84.4775C59.9888 84.2955 59.848 84.0753 59.8043 83.817C59.774 83.5599 59.8547 83.3329 60.0464 83.1359C60.4891 82.6805 61.0822 82.339 61.8256 82.1115C62.5835 81.8719 63.4007 81.7916 64.2771 81.8706C65.0208 81.9377 65.6873 82.1182 66.2766 82.4123C66.8671 82.6931 67.3213 83.0754 67.6391 83.5593C67.9702 84.0443 68.1059 84.6188 68.046 85.2828C67.9766 86.053 67.6059 86.6755 66.9339 87.1505C66.2631 87.6121 65.2777 87.9249 63.9777 88.0889C62.9095 88.2068 62.163 88.3938 61.7383 88.6501C61.3147 88.8931 61.0917 89.2143 61.069 89.6139C61.0452 90.0268 61.2157 90.3634 61.5804 90.6239C61.9452 90.8844 62.5127 91.0493 63.2829 91.1187C63.9734 91.181 64.5637 91.1672 65.0537 91.0775C65.5582 90.9757 65.9631 90.7913 66.2683 90.5243C66.4722 90.3419 66.6966 90.2282 66.9416 90.1834C67.1866 90.1385 67.4257 90.2337 67.6589 90.4689C67.8679 90.6752 67.9616 90.8978 67.9401 91.1369C67.9185 91.3759 67.7986 91.5927 67.5802 91.7872C67.1025 92.1859 66.4587 92.496 65.6489 92.7176C64.8403 92.9258 63.9977 92.9904 63.1213 92.9115Z" fill="#222222"/>
<path d="M75.1798 93.9984C74.1041 93.9014 73.1756 93.5834 72.3941 93.0444C71.6139 92.4922 71.0219 91.7828 70.618 90.9164C70.2286 90.0379 70.0824 89.0608 70.1794 87.9852C70.2775 86.8963 70.5961 85.9611 71.1351 85.1796C71.6886 84.3861 72.3979 83.7941 73.2631 83.4035C74.1296 82.9997 75.1006 82.8462 76.1762 82.9432C77.2386 83.0389 78.1599 83.3629 78.9401 83.9152C79.7216 84.4542 80.307 85.163 80.6963 86.0415C81.1002 86.9079 81.253 87.8855 81.1549 88.9745C81.0579 90.0501 80.7394 90.9853 80.1992 91.78C79.6602 92.5614 78.9575 93.1541 78.091 93.5579C77.2258 93.9485 76.2554 94.0953 75.1798 93.9984ZM75.3413 92.2056C76.0319 92.2679 76.6571 92.1636 77.217 91.8927C77.7769 91.6219 78.2281 91.2208 78.5705 90.6894C78.9262 90.1592 79.137 89.5289 79.2028 88.7985C79.2686 88.0681 79.174 87.4103 78.9188 86.8251C78.6781 86.2277 78.3066 85.7457 77.8041 85.3791C77.3017 85.0126 76.7052 84.7981 76.0146 84.7359C75.3241 84.6737 74.6989 84.778 74.139 85.0488C73.5791 85.3196 73.1207 85.7268 72.7638 86.2703C72.4081 86.8005 72.1973 87.4308 72.1315 88.1611C72.0656 88.8915 72.1603 89.5493 72.4154 90.1346C72.6706 90.7199 73.0494 91.1958 73.5519 91.5624C74.0543 91.929 74.6508 92.1434 75.3413 92.2056Z" fill="#222222"/>
<path d="M94.4969 95.7395C93.4345 95.6438 92.5115 95.3397 91.7276 94.8272C90.9438 94.3148 90.3542 93.6525 89.9588 92.8404C89.5647 92.015 89.4059 91.1038 89.4823 90.1066L90.4584 90.1946C90.5494 89.1853 90.8348 88.3208 91.3147 87.601C91.809 86.8691 92.4412 86.3169 93.211 85.9445C93.9942 85.5733 94.8638 85.4308 95.82 85.517C96.7761 85.6032 97.5996 85.8983 98.2904 86.4024C98.9946 86.9076 99.5178 87.5639 99.86 88.3712C100.217 89.1665 100.35 90.0687 100.259 91.0779C100.169 92.0739 99.8629 92.9433 99.3408 93.6861C98.8199 94.4156 98.1413 94.9636 97.305 95.33C96.4687 95.6964 95.5327 95.8329 94.4969 95.7395ZM94.6585 93.9468C95.3225 94.0066 95.9127 93.9193 96.4292 93.6847C96.9601 93.438 97.3878 93.075 97.7121 92.5955C98.0498 92.1172 98.2479 91.5527 98.3066 90.902C98.3652 90.2513 98.2706 89.6671 98.0228 89.1494C97.7894 88.6197 97.4329 88.1926 96.9534 87.8683C96.4884 87.5318 95.9239 87.3337 95.26 87.2738C94.5694 87.2116 93.9454 87.3026 93.3879 87.5469C92.8316 87.7779 92.378 88.1319 92.0271 88.609C91.6906 89.074 91.4931 89.6319 91.4344 90.2826C91.3758 90.9333 91.4698 91.5241 91.7164 92.055C91.9764 92.5872 92.3588 93.0233 92.8636 93.3633C93.3697 93.6901 93.968 93.8846 94.6585 93.9468ZM89.4823 90.1066L89.7051 87.8575C89.8597 86.2918 90.4205 84.8965 91.3877 83.6717C92.3682 82.4481 93.7979 81.5127 95.677 80.8654L99.5509 79.5478C99.826 79.4656 100.066 79.4738 100.272 79.5727C100.478 79.6582 100.617 79.8247 100.688 80.0721C100.759 80.3328 100.758 80.567 100.685 80.7746C100.628 80.9702 100.419 81.1322 100.059 81.2604L95.8486 82.7484C94.8807 83.0896 94.0717 83.5254 93.4214 84.0558C92.7712 84.5862 92.2671 85.2035 91.9091 85.9075C91.5656 86.5995 91.3429 87.3626 91.2409 88.1968L91.0161 90.2449L89.4823 90.1066Z" fill="#222222"/>
<path d="M107.763 96.9352C106.687 96.8383 105.758 96.5203 104.977 95.9813C104.197 95.429 103.605 94.7197 103.201 93.8533C102.811 92.9748 102.665 91.9977 102.762 90.9221C102.86 89.8331 103.179 88.898 103.718 88.1165C104.271 87.323 104.981 86.731 105.846 86.3404C106.712 85.9365 107.683 85.7831 108.759 85.8801C109.821 85.9758 110.743 86.2998 111.523 86.8521C112.304 87.3911 112.89 88.0998 113.279 88.9783C113.683 89.8448 113.836 90.8224 113.738 91.9113C113.641 92.987 113.322 93.9222 112.782 94.7169C112.243 95.4983 111.54 96.091 110.674 96.4948C109.809 96.8854 108.838 97.0322 107.763 96.9352ZM107.924 95.1425C108.615 95.2047 109.24 95.1005 109.8 94.8296C110.36 94.5588 110.811 94.1577 111.153 93.6263C111.509 93.0961 111.72 92.4658 111.786 91.7354C111.851 91.005 111.757 90.3472 111.502 89.7619C111.261 89.1646 110.889 88.6826 110.387 88.316C109.884 87.9494 109.288 87.735 108.597 87.6728C107.907 87.6105 107.282 87.7148 106.722 87.9857C106.162 88.2565 105.703 88.6636 105.347 89.2071C104.991 89.7374 104.78 90.3676 104.714 91.098C104.648 91.8284 104.743 92.4862 104.998 93.0715C105.253 93.6567 105.632 94.1327 106.135 94.4993C106.637 94.8658 107.234 95.0803 107.924 95.1425Z" fill="#222222"/>
<path d="M130.572 98.9309C130.279 98.9046 130.042 98.7895 129.86 98.5856C129.692 98.3697 129.621 98.1156 129.647 97.8235L130.161 92.1266C130.236 91.29 130.086 90.6539 129.71 90.2184C129.336 89.7696 128.816 89.5153 128.152 89.4555C127.462 89.3932 126.869 89.5808 126.375 90.0182C125.893 90.4567 125.619 91.0478 125.552 91.7915L123.899 91.6425C123.977 90.7793 124.231 90.0391 124.661 89.4219C125.093 88.7915 125.658 88.3203 126.355 88.0083C127.066 87.6975 127.853 87.581 128.716 87.6588C129.473 87.727 130.129 87.9535 130.683 88.3381C131.237 88.7228 131.645 89.2548 131.905 89.9343C132.179 90.6016 132.275 91.3934 132.192 92.3097L131.679 98.0066C131.653 98.2987 131.538 98.536 131.334 98.7185C131.131 98.8876 130.877 98.9584 130.572 98.9309ZM117.285 97.7333C116.993 97.707 116.756 97.5919 116.574 97.388C116.406 97.1721 116.335 96.918 116.361 96.6259L117.16 87.7618C117.188 87.4564 117.303 87.2191 117.505 87.05C117.721 86.882 117.975 86.8112 118.268 86.8375C118.573 86.865 118.81 86.9801 118.979 87.1828C119.149 87.3855 119.219 87.6395 119.192 87.945L118.393 96.809C118.367 97.1012 118.251 97.3385 118.048 97.5209C117.845 97.6901 117.591 97.7609 117.285 97.7333ZM123.938 98.333C123.646 98.3067 123.409 98.1916 123.227 97.9877C123.059 97.7718 122.988 97.5177 123.014 97.2256L123.528 91.5287C123.603 90.6921 123.453 90.056 123.077 89.6205C122.703 89.1717 122.183 88.9174 121.519 88.8576C120.829 88.7954 120.236 88.9829 119.742 89.4203C119.247 89.8576 118.966 90.4481 118.899 91.1918L117.644 91.0787C117.722 90.2155 117.963 89.4741 118.367 88.8546C118.772 88.2217 119.297 87.7469 119.941 87.4301C120.585 87.1134 121.299 86.9903 122.083 87.0609C122.84 87.1292 123.495 87.3556 124.05 87.7403C124.604 88.1249 125.011 88.6569 125.271 89.3364C125.546 90.0037 125.642 90.7955 125.559 91.7118L125.046 97.4087C125.02 97.7009 124.904 97.9382 124.701 98.1206C124.498 98.2897 124.244 98.3605 123.938 98.333Z" fill="#222222"/>
<path d="M139.499 99.7959C138.53 99.7085 137.682 99.3911 136.955 98.8436C136.229 98.2828 135.677 97.5704 135.3 96.7064C134.937 95.8303 134.803 94.8677 134.897 93.8186C134.992 92.7695 135.316 91.8482 135.87 91.0547C136.436 90.2624 137.153 89.6643 138.019 89.2605C138.9 88.8445 139.859 88.6832 140.894 88.7766C141.93 88.87 142.838 89.1994 143.617 89.765C144.397 90.3173 144.988 91.0332 145.391 91.9129C145.807 92.7938 145.968 93.7588 145.873 94.8079L145.096 94.7379C145.002 95.787 144.691 96.7095 144.164 97.5054C143.651 98.2892 142.988 98.8921 142.174 99.314C141.36 99.7226 140.469 99.8833 139.499 99.7959ZM140.059 98.0391C140.737 98.1001 141.355 97.9952 141.915 97.7244C142.476 97.4403 142.935 97.0331 143.29 96.5029C143.647 95.9594 143.857 95.3358 143.921 94.6319C143.986 93.9149 143.89 93.2637 143.635 92.6784C143.381 92.0799 143.003 91.5973 142.501 91.2307C141.999 90.8508 141.41 90.6304 140.733 90.5693C140.069 90.5095 139.45 90.621 138.875 90.9039C138.315 91.1748 137.85 91.5813 137.48 92.1236C137.124 92.6538 136.914 93.2775 136.85 93.9946C136.786 94.6984 136.881 95.3496 137.135 95.9481C137.404 96.5346 137.789 97.0177 138.29 97.3976C138.806 97.7654 139.395 97.9792 140.059 98.0391ZM144.365 100.174C144.073 100.148 143.836 100.033 143.653 99.8289C143.485 99.613 143.415 99.3589 143.441 99.0668L143.716 96.0191L144.284 93.9418L145.873 94.8079L145.473 99.2499C145.446 99.542 145.325 99.7787 145.107 99.96C144.905 100.129 144.657 100.201 144.365 100.174Z" fill="#222222"/>
<path fill-rule="evenodd" clip-rule="evenodd" d="M206.712 96.3146C191.46 103.273 175.535 98.1563 162.006 89.7511C161.537 89.4597 160.921 89.6037 160.629 90.0728C160.338 90.5419 160.482 91.1585 160.951 91.45C174.686 99.9832 191.375 105.51 207.543 98.1342C210.7 96.6936 212.364 94.5881 212.875 92.0547C213.369 89.6039 212.749 86.9168 211.741 84.3269C210.726 81.7216 209.259 79.0699 207.912 76.6612C207.863 76.5734 207.814 76.486 207.766 76.3989C206.456 74.0565 205.302 71.9924 204.698 70.3219C203.556 67.1596 204.058 64.503 205.813 62.1892C207.617 59.8113 210.794 57.7362 215.101 55.9906C223.7 52.5052 236.35 50.5114 249.912 49.745C263.453 48.9799 277.807 49.4429 289.764 50.8195C295.743 51.5078 301.105 52.4226 305.456 53.5203C308.575 54.3071 311.121 55.1749 312.993 56.0914C311.308 56.6579 309.713 57.3789 308.174 58.0747L308.158 58.0816C305.897 59.1035 303.757 60.0693 301.467 60.5775C300.928 60.6971 300.588 61.2312 300.708 61.7704C300.827 62.3095 301.361 62.6496 301.9 62.53C304.4 61.9754 306.705 60.9333 308.911 59.9361L308.982 59.9041C311.241 58.8832 313.403 57.9119 315.736 57.3943C315.946 57.3476 316.183 57.2486 316.388 57.0543C316.597 56.8551 316.713 56.6116 316.764 56.376C316.853 55.9566 316.736 55.5557 316.635 55.2898C316.419 54.7204 315.978 54.0365 315.456 53.3286C314.389 51.8796 312.735 50.0027 310.99 48.1043C309.771 46.7774 308.488 45.4195 307.308 44.1708C306.795 43.6286 306.303 43.1071 305.843 42.6176C305.08 41.8054 304.409 41.0823 303.883 40.4917C303.342 39.8836 303 39.4663 302.856 39.2461C302.555 38.7832 301.936 38.6523 301.473 38.9537C301.01 39.255 300.879 39.8745 301.18 40.3373C301.418 40.7029 301.861 41.2276 302.39 41.8218C302.934 42.4333 303.62 43.1726 304.385 43.9867C304.853 44.485 305.351 45.0117 305.866 45.5567C307.041 46.8011 308.308 48.1412 309.518 49.4577C311.11 51.1903 312.572 52.8469 313.573 54.1517C311.535 53.1917 308.938 52.336 305.945 51.5811C301.482 50.4553 296.028 49.5275 289.993 48.8326C277.92 47.4427 263.452 46.9767 249.8 47.7482C236.169 48.5184 223.257 50.5269 214.349 54.1371C209.903 55.9393 206.339 58.1855 204.219 60.9806C202.051 63.84 201.447 67.2083 202.817 71.0014C203.478 72.8313 204.706 75.0255 205.97 77.2861C206.036 77.4029 206.101 77.52 206.167 77.6372C207.523 80.063 208.921 82.5969 209.877 85.0526C210.839 87.5238 211.295 89.7733 210.914 91.6592C210.551 93.4625 209.388 95.0938 206.712 96.3146Z" fill="#222222"/>
</svg>
