<svg width="324" height="50" viewBox="0 0 324 50" fill="none" xmlns="http://www.w3.org/2000/svg">
<path d="M177.851 20.283C177.558 20.2955 177.307 20.2062 177.099 20.0149C176.89 19.8237 176.78 19.5816 176.767 19.2885L176.187 5.76093C176.174 5.45454 176.263 5.20382 176.455 5.00875C176.646 4.80036 176.888 4.68988 177.182 4.67731L187.812 4.22128C188.118 4.20813 188.369 4.29747 188.564 4.48928C188.772 4.66721 188.882 4.90936 188.895 5.21575L189.476 18.7433C189.488 19.0364 189.399 19.2871 189.208 19.4955C189.03 19.7033 188.788 19.8138 188.481 19.8269C188.188 19.8395 187.937 19.7502 187.729 19.5589C187.521 19.3677 187.41 19.1255 187.398 18.8325L186.852 6.10416L178.299 6.47104L178.845 19.1993C178.858 19.4924 178.769 19.7431 178.577 19.9515C178.4 20.1593 178.157 20.2698 177.851 20.283Z" fill="#222222"/>
<path d="M198.274 19.4869C197.195 19.5332 196.233 19.3409 195.387 18.9101C194.541 18.466 193.86 17.8412 193.345 17.0359C192.843 16.2167 192.568 15.2676 192.522 14.1886C192.475 13.0962 192.667 12.1271 193.098 11.2812C193.542 10.4214 194.166 9.74066 194.972 9.23899C195.777 8.724 196.72 8.44336 197.799 8.39708C198.864 8.35136 199.82 8.55056 200.667 8.99469C201.513 9.4255 202.187 10.0505 202.689 10.8697C203.204 11.6751 203.485 12.6239 203.532 13.7162C203.578 14.7952 203.386 15.7644 202.956 16.6236C202.525 17.4695 201.907 18.1499 201.102 18.6649C200.296 19.1666 199.353 19.4406 198.274 19.4869ZM198.197 17.6885C198.89 17.6588 199.496 17.4727 200.015 17.1301C200.534 16.7875 200.928 16.3302 201.197 15.7582C201.48 15.1855 201.605 14.5329 201.574 13.8002C201.542 13.0676 201.361 12.4281 201.031 11.8817C200.713 11.3215 200.281 10.893 199.735 10.5961C199.188 10.2993 198.568 10.1657 197.876 10.1954C197.183 10.2251 196.577 10.4113 196.058 10.7538C195.539 11.0964 195.138 11.5607 194.857 12.1466C194.574 12.7192 194.449 13.3719 194.48 14.1045C194.512 14.8372 194.693 15.4767 195.023 16.0231C195.353 16.5694 195.792 16.991 196.338 17.2878C196.885 17.5847 197.505 17.7182 198.197 17.6885Z" fill="#222222"/>
<path d="M211.758 18.9084C210.692 18.9541 209.73 18.7552 208.87 18.3117C208.023 17.8542 207.342 17.2228 206.827 16.4175C206.325 15.5983 206.051 14.6625 206.006 13.6101C205.959 12.5311 206.151 11.562 206.582 10.7028C207.012 9.84352 207.623 9.16336 208.416 8.66226C209.208 8.14785 210.13 7.86806 211.182 7.82292C211.968 7.7892 212.694 7.91153 213.36 8.18992C214.025 8.45498 214.631 8.87609 215.176 9.45325C215.372 9.65839 215.448 9.87533 215.404 10.1041C215.361 10.3328 215.223 10.5389 214.99 10.7224C214.809 10.8636 214.605 10.9191 214.377 10.8888C214.148 10.8453 213.936 10.7342 213.742 10.5557C213.059 9.89103 212.232 9.57955 211.26 9.62126C210.58 9.65041 209.988 9.83598 209.482 10.178C208.975 10.5066 208.588 10.957 208.319 11.5291C208.05 12.1011 207.931 12.7668 207.964 13.5261C207.995 14.2454 208.169 14.8786 208.486 15.4255C208.816 15.9718 209.255 16.4001 209.802 16.7102C210.349 17.0071 210.975 17.1404 211.681 17.1101C212.147 17.0901 212.551 17.0194 212.893 16.8979C213.247 16.7626 213.566 16.5688 213.849 16.3164C214.055 16.1341 214.27 16.0314 214.496 16.0084C214.722 15.972 214.924 16.0234 215.103 16.1625C215.338 16.3393 215.474 16.547 215.511 16.7857C215.547 17.011 215.476 17.2209 215.297 17.4154C214.377 18.349 213.197 18.8467 211.758 18.9084Z" fill="#222222"/>
<path d="M219.819 18.4825C219.526 18.4951 219.275 18.4124 219.068 18.2345C218.873 18.0427 218.769 17.8003 218.756 17.5072L218.375 8.61538C218.362 8.309 218.444 8.05856 218.623 7.86406C218.815 7.66899 219.057 7.56517 219.35 7.5526C219.776 7.53431 220.145 7.72536 220.456 8.12574L224.848 13.9228L228.728 7.77086C229.003 7.34534 229.354 7.12343 229.78 7.10514C230.087 7.092 230.337 7.17467 230.532 7.35317C230.726 7.53166 230.83 7.7741 230.843 8.08049L231.225 16.9723C231.237 17.2654 231.155 17.5158 230.977 17.7236C230.798 17.9181 230.556 18.0219 230.249 18.0351C229.956 18.0477 229.706 17.965 229.498 17.7871C229.303 17.5952 229.199 17.3528 229.187 17.0597L228.875 9.78643L229.401 9.924L225.947 15.2769C225.634 15.7575 225.285 16.006 224.898 16.0226C224.511 16.0258 224.148 15.8079 223.809 15.3687L219.97 10.3286L220.482 10.1465L220.794 17.4198C220.807 17.7128 220.724 17.9633 220.546 18.1711C220.368 18.3656 220.125 18.4694 219.819 18.4825Z" fill="#222222"/>
<path d="M239.818 17.7047C238.739 17.751 237.777 17.5587 236.931 17.1279C236.084 16.6838 235.404 16.059 234.889 15.2537C234.386 14.4345 234.112 13.4854 234.066 12.4063C234.019 11.314 234.211 10.3449 234.642 9.49899C235.085 8.63919 235.71 7.95845 236.516 7.45678C237.321 6.94179 238.263 6.66115 239.342 6.61487C240.408 6.56915 241.364 6.76835 242.211 7.21248C243.057 7.64329 243.731 8.2683 244.233 9.08753C244.748 9.89287 245.029 10.8417 245.076 11.934C245.122 13.013 244.93 13.9822 244.5 14.8414C244.069 15.6873 243.451 16.3677 242.646 16.8827C241.84 17.3844 240.897 17.6584 239.818 17.7047ZM239.741 15.9063C240.434 15.8766 241.04 15.6905 241.559 15.3479C242.078 15.0053 242.472 14.548 242.741 13.976C243.023 13.4033 243.149 12.7507 243.118 12.018C243.086 11.2854 242.905 10.6459 242.575 10.0995C242.257 9.5393 241.825 9.11075 241.279 8.81391C240.732 8.51706 240.112 8.38349 239.42 8.41321C238.727 8.44293 238.121 8.62907 237.602 8.97163C237.083 9.3142 236.682 9.77845 236.4 10.3644C236.118 10.937 235.993 11.5897 236.024 12.3223C236.055 13.055 236.236 13.6945 236.567 14.2408C236.897 14.7872 237.336 15.2088 237.882 15.5056C238.429 15.8025 239.048 15.936 239.741 15.9063Z" fill="#222222"/>
<path d="M262.691 16.6634C262.398 16.676 262.147 16.5933 261.939 16.4154C261.744 16.2235 261.641 15.9811 261.628 15.688L261.383 9.9733C261.347 9.13407 261.114 8.5235 260.684 8.14158C260.253 7.74635 259.705 7.56301 259.039 7.59159C258.346 7.6213 257.783 7.88566 257.351 8.38464C256.932 8.88306 256.738 9.50526 256.77 10.2512L255.112 10.3224C255.075 9.45652 255.229 8.68922 255.574 8.02048C255.918 7.33843 256.415 6.79662 257.065 6.39505C257.729 5.99292 258.493 5.77328 259.359 5.73613C260.119 5.70356 260.798 5.84121 261.399 6.1491C261.999 6.45698 262.473 6.93043 262.821 7.56945C263.181 8.19457 263.381 8.96671 263.421 9.88587L263.666 15.6006C263.679 15.8937 263.596 16.1441 263.418 16.3519C263.24 16.5464 262.997 16.6502 262.691 16.6634ZM249.363 17.2351C249.07 17.2477 248.819 17.165 248.612 16.9871C248.417 16.7953 248.313 16.5529 248.3 16.2598L247.919 7.36798C247.906 7.06159 247.988 6.81115 248.167 6.61666C248.359 6.42159 248.601 6.31777 248.894 6.3052C249.2 6.29205 249.451 6.37473 249.645 6.55322C249.84 6.73172 249.944 6.97416 249.957 7.28054L250.338 16.1724C250.351 16.4654 250.268 16.7159 250.09 16.9237C249.912 17.1182 249.669 17.222 249.363 17.2351ZM256.037 16.9488C255.744 16.9614 255.493 16.8787 255.285 16.7008C255.09 16.509 254.987 16.2666 254.974 15.9735L254.729 10.2587C254.693 9.41952 254.46 8.80895 254.03 8.42703C253.599 8.03179 253.051 7.84846 252.385 7.87704C251.692 7.90675 251.129 8.1711 250.697 8.67009C250.265 9.16908 250.065 9.79157 250.097 10.5375L248.838 10.5916C248.801 9.72568 248.941 8.95895 249.26 8.29136C249.577 7.61045 250.035 7.07035 250.631 6.67107C251.228 6.2718 251.919 6.0553 252.705 6.02158C253.465 5.98901 254.145 6.12666 254.745 6.43455C255.345 6.74243 255.819 7.21588 256.167 7.8549C256.528 8.48002 256.728 9.25216 256.767 10.1713L257.012 15.8861C257.025 16.1791 256.942 16.4296 256.764 16.6374C256.586 16.8319 256.343 16.9357 256.037 16.9488Z" fill="#222222"/>
<path d="M268.315 21.0864C268.022 21.099 267.771 21.0096 267.563 20.8184C267.368 20.6399 267.265 20.4041 267.252 20.1111L266.861 10.9994C266.829 9.9465 267.035 8.99013 267.479 8.13033C267.922 7.27053 268.547 6.58313 269.352 6.06814C270.157 5.53983 271.079 5.25339 272.118 5.20881C273.17 5.16367 274.12 5.36982 274.967 5.82727C275.814 6.27139 276.495 6.90279 277.01 7.72144C277.539 8.53953 277.826 9.47475 277.871 10.5271C277.916 11.5795 277.73 12.535 277.314 13.3937C276.909 14.2384 276.332 14.9238 275.58 15.4498C274.828 15.9625 273.966 16.2398 272.993 16.2815C272.207 16.3152 271.475 16.1865 270.795 15.8953C270.128 15.5903 269.549 15.1681 269.059 14.6286L269.29 20.0236C269.303 20.3167 269.22 20.5605 269.041 20.755C268.864 20.9628 268.621 21.0733 268.315 21.0864ZM272.517 14.5003C273.196 14.4711 273.795 14.2853 274.314 13.9427C274.833 13.5868 275.233 13.1226 275.516 12.5499C275.811 11.9634 275.943 11.3171 275.913 10.6111C275.882 9.89178 275.695 9.25923 275.351 8.71346C275.02 8.1538 274.581 7.72554 274.035 7.42869C273.488 7.11853 272.874 6.97801 272.195 7.00716C271.529 7.03573 270.93 7.22825 270.398 7.5847C269.879 7.92727 269.479 8.39153 269.197 8.97748C268.914 9.55011 268.789 10.1961 268.819 10.9154C268.85 11.6214 269.03 12.2543 269.361 12.8139C269.692 13.3603 270.131 13.7885 270.678 14.0987C271.238 14.395 271.85 14.5288 272.517 14.5003Z" fill="#222222"/>
<path d="M285.745 15.7544C284.826 15.7939 283.992 15.6362 283.242 15.2813C282.506 14.9125 281.908 14.3576 281.449 13.6166C281.004 12.875 280.757 11.9514 280.71 10.8457L280.499 5.93026C280.486 5.6372 280.569 5.39341 280.748 5.19892C280.939 4.99053 281.181 4.88005 281.474 4.86748C281.767 4.85491 282.012 4.94453 282.207 5.13634C282.414 5.31427 282.525 5.54976 282.537 5.84282L282.748 10.7583C282.78 11.5043 282.947 12.1177 283.247 12.5986C283.548 13.0662 283.943 13.4095 284.433 13.6287C284.922 13.8346 285.466 13.9247 286.066 13.899C286.639 13.8744 287.14 13.7395 287.57 13.4942C288.013 13.2483 288.359 12.9265 288.609 12.5287C288.859 12.131 288.974 11.6923 288.953 11.2128L290.212 11.1588C290.248 11.9847 290.073 12.7395 289.689 13.4233C289.318 14.1065 288.787 14.6564 288.098 15.073C287.422 15.489 286.637 15.7162 285.745 15.7544ZM290.157 15.4651C289.864 15.4777 289.613 15.395 289.405 15.2171C289.21 15.0253 289.106 14.7828 289.094 14.4898L288.712 5.57795C288.698 5.27156 288.781 5.02112 288.96 4.82663C289.151 4.63156 289.394 4.52774 289.687 4.51517C289.993 4.50203 290.244 4.5847 290.438 4.7632C290.633 4.94169 290.736 5.18413 290.75 5.49051L291.132 14.4023C291.145 14.6954 291.062 14.9458 290.884 15.1536C290.705 15.3481 290.463 15.452 290.157 15.4651Z" fill="#222222"/>
<path d="M309.113 14.6719C308.82 14.6845 308.569 14.6018 308.362 14.4239C308.166 14.2321 308.063 13.9896 308.05 13.6966L307.805 7.98181C307.769 7.14259 307.536 6.53201 307.106 6.1501C306.675 5.75486 306.127 5.57153 305.461 5.6001C304.768 5.62982 304.205 5.89417 303.773 6.39316C303.354 6.89157 303.161 7.51377 303.193 8.25975L301.534 8.3309C301.497 7.46503 301.651 6.69773 301.996 6.029C302.34 5.34694 302.838 4.80513 303.488 4.40357C304.151 4.00143 304.916 3.78179 305.781 3.74465C306.541 3.71207 307.221 3.84973 307.821 4.15761C308.421 4.46549 308.895 4.93894 309.243 5.57796C309.604 6.20308 309.804 6.97522 309.843 7.89438L310.088 13.6091C310.101 13.9022 310.018 14.1526 309.84 14.3604C309.662 14.5549 309.419 14.6588 309.113 14.6719ZM295.785 15.2437C295.492 15.2562 295.242 15.1736 295.034 14.9956C294.839 14.8038 294.735 14.5614 294.722 14.2683L294.341 5.37649C294.328 5.0701 294.41 4.81966 294.589 4.62517C294.781 4.4301 295.023 4.32628 295.316 4.31371C295.623 4.30057 295.873 4.38324 296.068 4.56174C296.262 4.74023 296.366 4.98267 296.379 5.28905L296.76 14.1809C296.773 14.4739 296.69 14.7244 296.512 14.9322C296.334 15.1267 296.091 15.2305 295.785 15.2437ZM302.459 14.9574C302.166 14.9699 301.915 14.8872 301.708 14.7093C301.513 14.5175 301.409 14.2751 301.396 13.982L301.151 8.26726C301.115 7.42803 300.882 6.81746 300.452 6.43554C300.021 6.04031 299.473 5.85697 298.807 5.88555C298.114 5.91526 297.552 6.17962 297.119 6.67861C296.687 7.17759 296.487 7.80008 296.519 8.54606L295.26 8.60006C295.223 7.73419 295.363 6.96746 295.682 6.29987C295.999 5.61896 296.457 5.07886 297.053 4.67958C297.65 4.28031 298.342 4.06381 299.128 4.03009C299.887 3.99752 300.567 4.13517 301.167 4.44306C301.768 4.75094 302.242 5.22439 302.589 5.86341C302.95 6.48853 303.15 7.26067 303.189 8.17983L303.434 13.8946C303.447 14.1876 303.364 14.4381 303.186 14.6459C303.008 14.8404 302.765 14.9442 302.459 14.9574Z" fill="#222222"/>
<path d="M318.656 14.3226C317.551 14.37 316.555 14.1792 315.669 13.7501C314.796 13.3071 314.095 12.6832 313.567 11.8784C313.051 11.0598 312.77 10.111 312.724 9.03195C312.677 7.93962 312.862 6.97079 313.28 6.12545C313.71 5.26622 314.322 4.58606 315.114 4.08496C315.906 3.57054 316.828 3.29076 317.881 3.24561C318.92 3.20104 319.822 3.39587 320.588 3.8301C321.354 4.25102 321.947 4.85948 322.368 5.6555C322.802 6.43762 323.042 7.35486 323.087 8.40722C323.098 8.66033 323.02 8.87718 322.854 9.05778C322.688 9.22506 322.472 9.31442 322.205 9.32585L314.153 9.6713L314.084 8.07277L322.077 7.72989L321.281 8.32452C321.24 7.65904 321.081 7.07196 320.806 6.5633C320.53 6.04131 320.152 5.63713 319.673 5.35075C319.193 5.06436 318.62 4.93546 317.954 4.96403C317.195 4.9966 316.55 5.19112 316.018 5.54758C315.499 5.90346 315.113 6.38047 314.858 6.9786C314.603 7.56341 314.491 8.22214 314.522 8.9548C314.554 9.68746 314.748 10.333 315.106 10.8916C315.463 11.4501 315.942 11.8833 316.543 12.1912C317.143 12.4991 317.823 12.6367 318.582 12.6041C318.995 12.5864 319.412 12.4952 319.832 12.3303C320.265 12.1516 320.61 11.9566 320.868 11.7454C321.061 11.5903 321.271 11.5079 321.498 11.4982C321.737 11.4746 321.946 11.5323 322.126 11.6714C322.361 11.8615 322.49 12.0762 322.514 12.3154C322.537 12.5546 322.44 12.7656 322.221 12.9485C321.783 13.3276 321.229 13.645 320.56 13.9006C319.903 14.1556 319.269 14.2963 318.656 14.3226Z" fill="#222222"/>
<path d="M215.302 44.8203C214.543 44.8529 213.863 44.7153 213.263 44.4074C212.662 44.0995 212.182 43.633 211.821 43.0079C211.474 42.3688 211.28 41.5898 211.241 40.6706L210.995 34.9559C210.982 34.6495 211.065 34.399 211.244 34.2045C211.435 34.0095 211.678 33.9057 211.971 33.8931C212.277 33.8799 212.528 33.9626 212.722 34.1411C212.917 34.3196 213.02 34.562 213.034 34.8684L213.279 40.5832C213.303 41.1427 213.416 41.6049 213.619 41.9699C213.82 42.3216 214.092 42.5835 214.433 42.7557C214.787 42.914 215.183 42.9837 215.623 42.9649C216.329 42.9346 216.892 42.6702 217.311 42.1718C217.743 41.6728 217.943 41.057 217.912 40.3244L218.771 40.2875C218.808 41.14 218.68 41.9062 218.389 42.586C218.111 43.2519 217.707 43.783 217.176 44.1794C216.646 44.5758 216.022 44.7895 215.302 44.8203ZM208.648 45.1058C207.889 45.1384 207.209 45.0007 206.609 44.6928C206.022 44.3844 205.548 43.9176 205.187 43.2925C204.826 42.654 204.626 41.8752 204.587 40.9561L204.342 35.2413C204.328 34.9349 204.411 34.6845 204.59 34.49C204.781 34.2949 205.024 34.1911 205.317 34.1785C205.623 34.1654 205.874 34.2481 206.068 34.4266C206.263 34.605 206.367 34.8475 206.38 35.1539L206.625 40.8686C206.649 41.4281 206.762 41.8903 206.965 42.2553C207.18 42.6064 207.458 42.8681 207.799 43.0403C208.14 43.1992 208.53 43.2692 208.969 43.2503C209.675 43.22 210.238 42.9557 210.657 42.4573C211.076 41.9589 211.27 41.3433 211.238 40.6107L212.097 40.5738C212.134 41.4263 212.013 42.1922 211.735 42.8714C211.457 43.5373 211.053 44.0684 210.523 44.4649C209.992 44.8613 209.368 45.0749 208.648 45.1058ZM219.114 44.5367C218.821 44.5493 218.57 44.4666 218.362 44.2887C218.167 44.0969 218.063 43.8544 218.051 43.5614L217.669 34.6696C217.656 34.3632 217.739 34.1127 217.917 33.9182C218.109 33.7232 218.352 33.6194 218.645 33.6068C218.951 33.5936 219.202 33.6763 219.396 33.8548C219.591 34.0333 219.694 34.2757 219.707 34.5821L220.089 43.4739C220.102 43.767 220.019 44.0174 219.841 44.2253C219.662 44.4198 219.42 44.5236 219.114 44.5367Z" fill="#222222"/>
<path d="M223.1 49.1701C222.86 49.1804 222.612 49.1577 222.356 49.1019C222.114 49.0456 221.87 48.956 221.624 48.8331C221.324 48.6725 221.121 48.4676 221.017 48.2185C220.913 47.9694 220.942 47.7213 221.105 47.4741C221.256 47.2407 221.443 47.0926 221.667 47.0296C221.891 46.9666 222.133 47.0029 222.392 47.1386C222.542 47.2122 222.678 47.2665 222.8 47.3013C222.934 47.3355 223.069 47.3498 223.202 47.3441C223.628 47.3258 224.025 47.0886 224.392 46.6324C224.773 46.1757 225.138 45.5061 225.487 44.6236L229.8 33.6287C229.908 33.3571 230.081 33.1696 230.316 33.066C230.565 32.9619 230.819 32.9644 231.077 33.0734C231.308 33.157 231.462 33.3238 231.539 33.5741C231.616 33.811 231.594 34.0722 231.473 34.3577L227.12 45.3543C226.687 46.4539 226.111 47.3527 225.394 48.0508C224.691 48.7616 223.926 49.1347 223.1 49.1701ZM227.431 43.7395C227.183 43.8569 226.943 43.8805 226.714 43.8103C226.496 43.7262 226.316 43.5605 226.172 43.3131L221.223 34.8174C221.079 34.57 221.049 34.3311 221.132 34.1006C221.229 33.8563 221.401 33.6754 221.649 33.5579C221.898 33.4405 222.131 33.4239 222.348 33.508C222.578 33.5782 222.765 33.737 222.909 33.9844L227.674 42.4079C227.818 42.6552 227.876 42.913 227.848 43.1811C227.818 43.436 227.68 43.6221 227.431 43.7395Z" fill="#222222"/>
<path d="M247.137 43.5347C246.058 43.581 245.037 43.4246 244.074 43.0656C243.124 42.6926 242.28 42.1616 241.543 41.4726C240.819 40.7696 240.236 39.9405 239.795 38.9852C239.367 38.0293 239.129 36.9853 239.08 35.853C239.032 34.734 239.181 33.6867 239.526 32.711C239.884 31.7214 240.394 30.8521 241.056 30.103C241.73 29.3401 242.525 28.7321 243.44 28.2792C244.354 27.8262 245.358 27.5763 246.45 27.5294C247.476 27.4854 248.361 27.5809 249.105 27.8159C249.862 28.0503 250.627 28.4579 251.399 29.0387C251.509 29.1141 251.593 29.1972 251.65 29.2882C251.72 29.3652 251.764 29.4501 251.781 29.5428C251.812 29.6216 251.829 29.7209 251.834 29.8408C251.845 30.0939 251.761 30.311 251.582 30.4922C251.416 30.6595 251.206 30.7619 250.955 30.7994C250.702 30.8236 250.452 30.7476 250.204 30.5713C249.693 30.1662 249.166 29.8619 248.623 29.6583C248.094 29.4541 247.397 29.3706 246.531 29.4077C245.745 29.4414 245.012 29.633 244.333 29.9824C243.654 30.3318 243.061 30.7977 242.552 31.3801C242.056 31.9618 241.678 32.632 241.417 33.3906C241.155 34.1358 241.042 34.928 241.078 35.7673C241.115 36.6198 241.296 37.4128 241.621 38.1462C241.945 38.8663 242.379 39.4949 242.923 40.0321C243.48 40.5687 244.111 40.9821 244.818 41.272C245.524 41.5487 246.269 41.6702 247.055 41.6365C247.735 41.6073 248.369 41.4667 248.959 41.2145C249.562 40.9484 250.134 40.5969 250.675 40.16C250.908 39.9765 251.138 39.8932 251.365 39.9102C251.606 39.9132 251.81 39.9979 251.977 40.1642C252.144 40.3172 252.233 40.5402 252.246 40.8333C252.251 40.9665 252.231 41.1008 252.183 41.2363C252.135 41.3585 252.06 41.4752 251.958 41.5863C251.263 42.19 250.509 42.6561 249.696 42.9845C248.896 43.3125 248.043 43.4959 247.137 43.5347Z" fill="#222222"/>
<path d="M256.706 42.924C256.413 42.9366 256.163 42.8472 255.954 42.656C255.746 42.4648 255.635 42.2226 255.623 41.9295L255.042 28.402C255.029 28.0956 255.119 27.8449 255.31 27.6498C255.502 27.4414 255.744 27.3309 256.037 27.3184L259.634 27.1641C260.633 27.1212 261.528 27.2963 262.319 27.6895C263.109 28.0693 263.733 28.6164 264.191 29.3307C264.662 30.0445 264.918 30.8877 264.96 31.8601C264.999 32.7659 264.813 33.5813 264.404 34.3062C264.008 35.0305 263.432 35.609 262.677 36.0418C261.921 36.4746 261.044 36.7124 260.045 36.7552L257.487 36.865L257.701 41.8404C257.713 42.1335 257.624 42.3842 257.433 42.5926C257.255 42.8004 257.013 42.9109 256.706 42.924ZM264.999 42.5683C264.812 42.5763 264.637 42.5437 264.474 42.4707C264.324 42.397 264.192 42.2759 264.078 42.1073L260.233 36.4669L262.226 35.8009L265.729 40.9355C265.986 41.3115 266.035 41.6764 265.876 42.0302C265.718 42.3706 265.425 42.55 264.999 42.5683ZM257.405 34.9467L259.963 34.837C260.576 34.8107 261.11 34.6744 261.567 34.4279C262.023 34.1681 262.375 33.826 262.624 33.4016C262.872 32.9639 262.984 32.4787 262.962 31.9458C262.936 31.3597 262.781 30.8459 262.495 30.4044C262.209 29.9629 261.828 29.6256 261.351 29.3925C260.874 29.1594 260.329 29.056 259.716 29.0823L257.158 29.192L257.405 34.9467Z" fill="#222222"/>
<path d="M269.331 42.3824C269.038 42.395 268.788 42.3056 268.579 42.1144C268.371 41.9231 268.26 41.681 268.248 41.3879L267.668 27.8604C267.654 27.554 267.744 27.3033 267.936 27.1082C268.127 26.8998 268.369 26.7893 268.662 26.7768C269.062 26.7596 269.376 26.933 269.605 27.2968L276.397 39.557L275.757 39.5844L281.314 26.7945C281.512 26.4124 281.81 26.2127 282.21 26.1956C282.503 26.183 282.753 26.2723 282.962 26.4636C283.17 26.6415 283.28 26.8837 283.293 27.19L283.873 40.7176C283.886 41.0107 283.79 41.2617 283.585 41.4706C283.394 41.679 283.159 41.7892 282.879 41.8012C282.586 41.8138 282.335 41.7245 282.127 41.5332C281.918 41.342 281.808 41.0998 281.795 40.8067L281.339 30.1565L281.734 30.0395L276.956 40.9343C276.745 41.2903 276.453 41.4764 276.08 41.4924C275.64 41.5112 275.311 41.3185 275.094 40.9141L269.474 30.7656L269.869 30.6486L270.326 41.2988C270.339 41.5918 270.249 41.8426 270.058 42.051C269.867 42.2593 269.625 42.3698 269.331 42.3824Z" fill="#222222"/>
<path fill-rule="evenodd" clip-rule="evenodd" d="M115.814 0.842414C133.196 -2.85574 148.291 6.15526 159.851 17.4613C160.246 17.8475 160.253 18.4806 159.867 18.8754C159.481 19.2703 158.847 19.2773 158.453 18.8911C147.066 7.75476 132.628 -0.690144 116.23 2.79863C113.353 3.41071 111.865 4.75152 111.119 6.43313C110.34 8.1918 110.297 10.4867 110.701 13.1076C111.103 15.7122 111.918 18.4887 112.717 21.1507C112.755 21.2793 112.794 21.4078 112.832 21.5361C113.577 24.0169 114.3 26.4249 114.549 28.3545C115.065 32.3544 113.746 35.5119 111.009 37.8335C108.334 40.1031 104.369 41.524 99.6375 42.3201C90.1592 43.9148 77.1184 43.0783 63.645 40.8774C50.1499 38.673 36.1258 35.0837 24.6414 31.1115C18.8996 29.1256 13.776 27.0382 9.66287 24.9723C6.90474 23.587 4.55507 22.1891 2.77352 20.8105C3.46814 22.3011 4.53632 24.235 5.7155 26.2715C6.61149 27.8188 7.55747 29.4016 8.4358 30.8711C8.82048 31.5147 9.19219 32.1367 9.54104 32.7244C10.1111 33.6848 10.6208 34.5552 11.02 35.2702C11.4078 35.9649 11.7258 36.5729 11.8789 36.9814C12.0729 37.4985 11.8109 38.0749 11.2937 38.2688C10.7766 38.4627 10.2002 38.2007 10.0063 37.6836C9.91402 37.4376 9.67062 36.9561 9.27373 36.2451C8.88823 35.5546 8.38991 34.7034 7.82119 33.7452C7.47844 33.1678 7.11034 32.5519 6.72771 31.9117C5.84631 30.437 4.88783 28.8333 3.98472 27.2736C2.69277 25.0424 1.48487 22.8518 0.756392 21.2059C0.400481 20.4018 0.117724 19.6385 0.0301076 19.0358C-0.010812 18.7543 -0.0375375 18.3378 0.140395 17.9476C0.240312 17.7285 0.406407 17.516 0.654091 17.3669C0.895732 17.2215 1.14886 17.1762 1.36446 17.1762C3.75364 17.1762 6.07512 16.6965 8.50129 16.1891L8.57755 16.1732C10.9474 15.6776 13.4236 15.1597 15.9837 15.1597C16.536 15.1597 16.9837 15.6075 16.9837 16.1597C16.9837 16.712 16.536 17.1597 15.9837 17.1597C13.6379 17.1597 11.3394 17.6389 8.91064 18.1468L8.89449 18.1502C7.24084 18.496 5.52722 18.8543 3.75964 19.0424C5.3892 20.3427 7.68603 21.7413 10.5606 23.1851C14.571 25.1995 19.6074 27.2542 25.2952 29.2214C36.6699 33.1556 50.583 36.7172 63.9674 38.9036C77.3736 41.0935 90.1549 41.8875 99.3056 40.3478C103.889 39.5767 107.44 38.2392 109.715 36.3084C111.93 34.4298 112.996 31.9451 112.566 28.6105C112.339 26.8489 111.659 24.5836 110.887 22.013L110.801 21.7253C110.008 19.0821 109.15 16.1755 108.725 13.4123C108.301 10.6655 108.278 7.90783 109.291 5.62232C110.339 3.25975 112.419 1.56473 115.814 0.842414Z" fill="#222222"/>
<path fill-rule="evenodd" clip-rule="evenodd" d="M196.062 45.6057C195.09 45.6474 194.207 45.4451 193.414 44.9986C192.62 44.5389 191.979 43.9058 191.491 43.0993C191.015 42.279 190.755 41.3426 190.709 40.2902C190.664 39.2379 190.863 38.2818 191.307 37.422C191.764 36.5616 192.395 35.8739 193.2 35.3589C194.018 34.8301 194.947 34.5433 195.986 34.4988C197.025 34.4542 197.968 34.6606 198.815 35.1181C199.662 35.5622 200.343 36.1936 200.858 37.0122C201.387 37.8303 201.674 38.7655 201.719 39.8179L201.91 44.2738C201.923 44.5669 201.834 44.8176 201.642 45.026C201.464 45.2205 201.228 45.324 200.935 45.3366C200.642 45.3492 200.392 45.2665 200.184 45.0886C199.989 44.8968 199.885 44.6543 199.872 44.3612L199.84 43.6198C199.509 44.0651 199.112 44.4498 198.649 44.7741C197.897 45.2868 197.035 45.564 196.062 45.6057ZM198.182 43.2326C197.663 43.5752 197.064 43.7611 196.385 43.7902C195.719 43.8188 195.106 43.6849 194.546 43.3886C193.999 43.0785 193.553 42.6505 193.209 42.1047C192.878 41.5451 192.698 40.9122 192.668 40.2062C192.637 39.4869 192.762 38.8409 193.045 38.2683C193.34 37.6818 193.747 37.2172 194.266 36.8746C194.798 36.5182 195.397 36.3257 196.063 36.2971C196.743 36.268 197.356 36.4085 197.903 36.7186C198.449 37.0155 198.888 37.4437 199.219 38.0034C199.55 38.5497 199.73 39.1826 199.761 39.9019C199.791 40.6079 199.666 41.2539 199.384 41.8399C199.101 42.4125 198.701 42.8768 198.182 43.2326Z" fill="#222222"/>
<path d="M186.918 45.9179C186.625 45.9305 186.375 45.8478 186.167 45.6699C185.972 45.4781 185.868 45.2356 185.855 44.9426L185.694 41.186L179.52 41.4509L179.681 45.2074C179.694 45.5005 179.611 45.7509 179.433 45.9587C179.254 46.1532 179.012 46.2571 178.706 46.2702C178.413 46.2828 178.169 46.1998 177.974 46.0213C177.793 45.8289 177.695 45.5862 177.683 45.2931L177.301 36.4013C177.288 36.0949 177.364 35.8448 177.529 35.6509C177.708 35.4564 177.944 35.3528 178.237 35.3403C178.543 35.3271 178.794 35.4098 178.988 35.5883C179.183 35.7668 179.286 36.0092 179.299 36.3156L179.443 39.6525L185.617 39.3877L185.474 36.0507C185.461 35.7443 185.543 35.4939 185.722 35.2994C185.914 35.1043 186.156 35.0005 186.449 34.9879C186.756 34.9748 186.999 35.0578 187.18 35.2368C187.362 35.4159 187.459 35.6586 187.472 35.965L187.853 44.8568C187.866 45.1499 187.79 45.4001 187.625 45.6073C187.46 45.8012 187.224 45.9048 186.918 45.9179Z" fill="#222222"/>
</svg>
