<svg width="32" height="32" viewBox="0 0 32 32" fill="none" xmlns="http://www.w3.org/2000/svg">
<path fill-rule="evenodd" clip-rule="evenodd" d="M20.9546 11.0454V7.99991C20.9546 6.6859 20.4326 5.4257 19.5034 4.49655C18.5743 3.5674 17.3141 3.04541 16.0001 3.04541C14.686 3.04541 13.4258 3.5674 12.4967 4.49655C11.5675 5.4257 11.0456 6.68589 11.0456 7.99991V11.0454H9.56111C8.84795 11.0454 8.25518 11.0454 7.77155 11.0849C7.26847 11.1259 6.79961 11.2144 6.35788 11.4396C5.67447 11.7875 5.12206 12.3419 4.77499 13.0221C4.54928 13.4647 4.46018 13.9338 4.41889 14.4378C4.37925 14.9218 4.37926 15.5146 4.37927 16.2282L4.37927 19.5096C4.37927 20.9669 4.37926 22.1194 4.45532 23.0477C4.53301 23.9961 4.69484 24.7945 5.06652 25.5219C5.66928 26.7046 6.63069 27.6664 7.81319 28.2696C8.54035 28.6397 9.33884 28.8013 10.2868 28.8787C11.2148 28.9544 12.3668 28.9544 13.8243 28.9544H18.1759C19.6333 28.9544 20.7857 28.9544 21.714 28.8785C22.6623 28.801 23.4606 28.6395 24.188 28.2685C25.3709 27.6657 26.3328 26.7043 26.936 25.5216C27.3062 24.7944 27.4677 23.9956 27.5451 23.0472C27.6209 22.1189 27.6209 20.9663 27.6208 19.5083V16.2273C27.6209 15.5141 27.6209 14.9213 27.5814 14.4376C27.5403 13.9341 27.4518 13.4651 27.2268 13.0231C26.8797 12.341 26.3253 11.7866 25.6433 11.4396C25.2013 11.2146 24.7326 11.126 24.229 11.0849C23.7452 11.0454 23.1522 11.0454 22.4379 11.0454H20.9546ZM16.0001 4.95441C15.1923 4.95441 14.4177 5.27527 13.8466 5.84642C13.2754 6.41756 12.9546 7.19219 12.9546 7.99991V11.0454H19.0456V7.99991C19.0456 7.19219 18.7247 6.41756 18.1536 5.84642C17.5824 5.27527 16.8078 4.95441 16.0001 4.95441ZM11.0456 12.9544H9.60006C8.83804 12.9544 8.32359 12.9552 7.92685 12.9875C7.54103 13.019 7.35182 13.0756 7.2246 13.1405C6.90229 13.3046 6.64034 13.5665 6.47542 13.8897C6.40973 14.0186 6.35307 14.2085 6.32152 14.5937C6.28902 14.9904 6.28827 15.5047 6.28827 16.2673V19.4673C6.28827 20.9763 6.28902 22.0506 6.35794 22.8918C6.42595 23.7219 6.55552 24.2405 6.76658 24.6536L6.76711 24.6546C7.18697 25.4787 7.85677 26.1488 8.68064 26.5691C9.09393 26.7793 9.61263 26.9083 10.4421 26.976C11.2833 27.0447 12.3575 27.0454 13.8663 27.0454H18.1338C19.6427 27.0454 20.717 27.0447 21.5584 26.9759C22.3886 26.908 22.9075 26.7786 23.3207 26.5679C24.1448 26.148 24.8152 25.4781 25.2355 24.6542C25.4457 24.241 25.5747 23.722 25.6424 22.892C25.7111 22.0504 25.7118 20.9756 25.7118 19.4662V16.2662C25.7118 15.5042 25.7111 14.9897 25.6787 14.5928C25.6472 14.2069 25.5907 14.0171 25.5254 13.8889C25.3615 13.5668 25.0996 13.3048 24.7775 13.1409C24.6492 13.0756 24.4595 13.019 24.0737 12.9875C23.6768 12.9552 23.1621 12.9544 22.3989 12.9544H20.9546V14.6228C20.9546 15.1499 20.5272 15.5773 20.0001 15.5773C19.4729 15.5773 19.0456 15.1499 19.0456 14.6228V12.9544H12.9546V14.6662C12.9546 15.1934 12.5272 15.6207 12.0001 15.6207C11.4729 15.6207 11.0456 15.1934 11.0456 14.6662V12.9544Z" fill="#29AAEC"/>
</svg>
