<svg width="100" height="25" viewBox="0 0 100 25" fill="none" xmlns="http://www.w3.org/2000/svg">
<g clip-path="url(#clip0_171_1028)">
<g clip-path="url(#clip1_171_1028)">
<path d="M22.2277 24.5H6.0809C3.91576 24.5 2.1543 22.7385 2.1543 20.5734V4.42661C2.1543 2.26146 3.91576 0.5 6.0809 0.5H22.2277C24.3929 0.5 26.1543 2.26146 26.1543 4.42661V20.5734C26.1543 22.7385 24.3929 24.5 22.2277 24.5Z" fill="url(#paint0_linear_171_1028)"/>
<path d="M21.7662 16.5491V18.5034C20.2233 18.5034 19.1262 18.3663 18.4405 18.1263C17.789 17.8863 17.3776 17.4405 17.1719 16.8577C17.0005 16.2748 16.9319 15.2805 16.9319 13.8748V11.612H16.2462C15.9033 10.9948 15.8005 10.7891 15.3205 10.3434C14.9776 10.0005 14.7376 9.79483 14.3262 9.58912H16.8976V6.02344H18.8519V9.58912H21.0805V11.612H18.8519V13.8748C18.8519 14.8005 18.8862 15.452 18.989 15.7605C19.0919 16.1034 19.2976 16.3091 19.6405 16.3777C20.0862 16.5148 20.7719 16.5491 21.7662 16.5491Z" fill="white"/>
<path d="M12.3727 9.52055C13.0927 9.52055 13.7784 9.72626 14.3612 10.1377C14.9441 10.5491 15.4241 11.132 15.7669 11.852C16.1098 12.572 16.2812 13.3948 16.2812 14.2863C16.2812 15.0748 16.1098 15.7948 15.7669 16.4805C15.4241 17.1663 14.9441 17.7148 14.3612 18.1263C13.7784 18.5377 13.0927 18.7091 12.3727 18.7091C10.4184 18.7091 9.28693 17.6463 8.94407 15.5548H8.66979L8.84122 18.4691H6.81836V6.02344H8.84122V9.58912L8.66979 12.4691H9.01265C9.21836 11.5091 9.62979 10.7891 10.2126 10.2748C10.7955 9.79483 11.5155 9.52055 12.3727 9.52055ZM11.6869 16.7548C12.2012 16.7548 12.6469 16.652 13.0241 16.412C13.4355 16.2063 13.7441 15.8977 13.9498 15.5205C14.1898 15.1434 14.2927 14.6977 14.2927 14.2177C14.2927 13.4634 14.0527 12.8463 13.5384 12.332C13.0584 11.852 12.4069 11.5777 11.6527 11.5777C11.1727 11.5777 10.7269 11.6805 10.3155 11.9205C9.90407 12.1263 9.5955 12.4348 9.38979 12.8463C9.14979 13.2234 9.04693 13.6691 9.04693 14.1491C9.04693 14.5948 9.14979 15.0063 9.38979 15.3834C9.62979 15.7948 9.93836 16.1034 10.3498 16.3434C10.7612 16.6177 11.2069 16.7548 11.6869 16.7548Z" fill="white"/>
</g>
<g clip-path="url(#clip2_171_1028)">
<path d="M56.5846 13.6024C56.5846 14.2576 56.6161 14.6993 56.6789 14.9275C56.7418 15.1557 56.8884 15.303 57.1189 15.3692C57.3562 15.4281 57.8136 15.4576 58.4911 15.4576V16.8379C57.4575 16.8379 56.7208 16.7496 56.2809 16.5729C55.8409 16.3962 55.5615 16.1017 55.4429 15.6895C55.3311 15.2699 55.2753 14.5741 55.2753 13.6024V12.0011H54.123V10.5876H55.2753V8.44531H56.5846V10.5876H58.4806V12.0011H56.5846V13.6024Z" fill="#272C30"/>
<path d="M60.3617 12.6243C60.4455 12.0722 60.5851 11.6488 60.7807 11.3544C60.9761 11.0599 61.2275 10.8574 61.5349 10.747C61.8492 10.6366 62.2541 10.5814 62.75 10.5814V12.1163C62.5405 12.0722 62.3449 12.0501 62.1634 12.0501C61.6117 12.0501 61.1856 12.2341 60.8855 12.6022C60.5922 12.963 60.4455 13.4672 60.4455 14.1151V16.8317H59.1152V10.5703H60.4455L60.1522 12.6243H60.3617Z" fill="#272C30"/>
<path d="M65.7879 10.5156C66.7726 10.5156 67.5058 10.7586 67.9877 11.2445C68.4695 11.723 68.7104 12.4481 68.7104 13.4199V16.8322H67.422L67.6315 14.7119H67.4744C67.223 16.2285 66.4688 16.9868 65.2118 16.9868C64.4927 16.9868 63.9548 16.8248 63.5987 16.5009C63.2425 16.177 63.0645 15.7169 63.0645 15.1205C63.0645 14.48 63.3054 13.9794 63.7872 13.6187C64.2691 13.2579 64.964 13.0776 65.8717 13.0776H67.4011C67.3314 12.6874 67.1638 12.4003 66.8983 12.2162C66.64 12.0248 66.2698 11.9291 65.7879 11.9291C65.4527 11.9291 65.1699 12.0027 64.9395 12.15C64.709 12.2899 64.489 12.5107 64.2795 12.8126L63.2111 12.0506C63.5463 11.5426 63.92 11.1598 64.3319 10.9021C64.7509 10.6445 65.2364 10.5156 65.7879 10.5156ZM65.4108 15.5623C65.9974 15.5623 66.4478 15.4297 66.7621 15.1647C67.0763 14.8997 67.2754 14.5095 67.3592 13.9942H65.8717C65.3689 13.9942 64.9989 14.0641 64.7614 14.204C64.5241 14.3365 64.4052 14.5426 64.4052 14.8224C64.4052 15.0432 64.489 15.2236 64.6566 15.3635C64.8242 15.496 65.0756 15.5623 65.4108 15.5623Z" fill="#272C30"/>
<path d="M73.1634 10.4219C73.9943 10.4219 74.6158 10.6943 75.0279 11.2391C75.4469 11.7838 75.6564 12.6636 75.6564 13.8783V16.8378H74.3575V13.8783C74.3575 13.1789 74.2318 12.6636 73.9804 12.3323C73.729 12.001 73.331 11.8354 72.7863 11.8354C72.2345 11.8354 71.798 12.0341 71.4769 12.4317C71.1556 12.8219 70.9951 13.3851 70.9951 14.1213V16.8378H69.6543V10.5875H70.9951L70.7018 12.6305H70.9008C70.9846 12.0415 71.1242 11.5888 71.3198 11.2722C71.5152 10.9483 71.7598 10.7274 72.053 10.6096C72.3532 10.4845 72.7234 10.4219 73.1634 10.4219Z" fill="#272C30"/>
<path d="M77.5402 14.5573C77.7078 14.9033 77.9173 15.1684 78.1687 15.3524C78.4271 15.5291 78.7553 15.6175 79.1533 15.6175C80.0052 15.6175 80.4313 15.4224 80.4313 15.0322C80.4313 14.8408 80.3475 14.6935 80.1799 14.5905C80.0123 14.4874 79.691 14.388 79.2162 14.2923L78.8391 14.215C78.043 14.0604 77.4669 13.8248 77.1107 13.5083C76.7546 13.1843 76.5765 12.7573 76.5765 12.2273C76.5765 11.9181 76.6603 11.6346 76.8279 11.377C77.0025 11.1193 77.2678 10.9132 77.624 10.7586C77.987 10.5966 78.434 10.5156 78.9648 10.5156C79.6491 10.5156 80.1938 10.6629 80.5989 10.9573C81.004 11.2445 81.3391 11.6788 81.6044 12.2604L80.4836 12.8236C80.281 12.4702 80.0646 12.2236 79.8342 12.0837C79.6037 11.9365 79.3139 11.8629 78.9648 11.8629C78.5736 11.8629 78.2908 11.9144 78.1163 12.0175C77.9487 12.1132 77.8649 12.242 77.8649 12.404C77.8649 12.5733 77.9312 12.7058 78.0639 12.8015C78.2035 12.8972 78.462 12.9892 78.8391 13.0776L79.2162 13.1549C79.8727 13.28 80.3789 13.4346 80.735 13.6187C81.0982 13.8027 81.3496 14.0162 81.4892 14.2592C81.6288 14.4948 81.6987 14.7819 81.6987 15.1205C81.6987 15.4297 81.6079 15.7279 81.4264 16.015C81.2517 16.2948 80.9725 16.523 80.5884 16.6997C80.2042 16.8764 79.726 16.9647 79.1533 16.9647C78.4481 16.9647 77.872 16.8248 77.425 16.5451C76.985 16.258 76.6045 15.7942 76.2832 15.1537L77.5402 14.5573Z" fill="#272C30"/>
<path d="M86.715 9.21472C86.1354 9.20736 85.7233 9.23313 85.4789 9.29202C85.2414 9.34356 85.0775 9.46135 84.9866 9.6454C84.9028 9.82945 84.8539 10.1423 84.84 10.584H86.715V11.9975H84.8295V16.8344H83.5201V11.9975H82.3574V10.584H83.5201C83.534 9.89939 83.6144 9.38405 83.7611 9.03804C83.9077 8.68466 84.2044 8.42331 84.6514 8.25399C85.0984 8.08466 85.7861 8 86.715 8V9.21472Z" fill="#272C30"/>
<path d="M88.2607 14.1819C88.3377 14.6236 88.5262 14.977 88.8264 15.242C89.1338 15.4997 89.5177 15.6285 89.9786 15.6285C90.7189 15.6285 91.3055 15.3267 91.7384 14.723L92.6287 15.3635C92.3564 15.9083 91.9863 16.3168 91.5184 16.5892C91.0507 16.8616 90.5374 16.9978 89.9786 16.9978C89.4271 16.9978 88.9172 16.8543 88.4493 16.5672C87.9815 16.2727 87.6078 15.8788 87.3284 15.3856C87.0561 14.885 86.9199 14.3402 86.9199 13.7512C86.9199 13.1623 87.0561 12.6212 87.3284 12.1279C87.6078 11.6346 87.9815 11.2445 88.4493 10.9573C88.9172 10.6629 89.4271 10.5156 89.9786 10.5156C90.5652 10.5156 91.0821 10.6702 91.5289 10.9794C91.9759 11.2886 92.3181 11.723 92.5554 12.2825C92.7929 12.8346 92.9011 13.4678 92.8801 14.1819H88.2607ZM89.9786 11.8629C89.5457 11.8629 89.1756 11.9954 88.8683 12.2604C88.5681 12.5181 88.3691 12.8494 88.2712 13.2543H91.6232C91.5394 12.8199 91.344 12.4813 91.0366 12.2383C90.7364 11.988 90.3837 11.8629 89.9786 11.8629Z" fill="#272C30"/>
<path d="M94.7641 12.6243C94.8479 12.0722 94.9877 11.6488 95.1831 11.3544C95.3787 11.0599 95.6301 10.8574 95.9373 10.747C96.2515 10.6366 96.6566 10.5814 97.1524 10.5814V12.1163C96.9429 12.0722 96.7475 12.0501 96.5658 12.0501C96.0142 12.0501 95.5882 12.2341 95.2878 12.6022C94.9945 12.963 94.8479 13.4672 94.8479 14.1151V16.8317H93.5176V10.5703H94.8479L94.5546 12.6243H94.7641Z" fill="#272C30"/>
<path d="M33.8624 10.5178C34.3512 10.5178 34.7912 10.665 35.1822 10.9595C35.5803 11.254 35.8945 11.6589 36.125 12.1742C36.3554 12.6822 36.4707 13.2528 36.4707 13.8859C36.4707 14.438 36.3554 14.9534 36.125 15.4319C35.8945 15.9104 35.5803 16.2933 35.1822 16.5804C34.7842 16.8601 34.3443 17 33.8624 17C32.5705 17 31.8058 16.2601 31.5684 14.7804H31.3903L31.4951 16.8344H30.1543V8H31.4951V10.584L31.3903 12.616H31.6103C31.75 11.946 32.0153 11.4307 32.4064 11.0699C32.8044 10.7018 33.2898 10.5178 33.8624 10.5178ZM33.4015 15.5975C33.7367 15.5975 34.037 15.5202 34.3024 15.3656C34.5677 15.211 34.7737 15.0012 34.9204 14.7362C35.074 14.4638 35.1508 14.1583 35.1508 13.8196C35.1508 13.2822 34.9867 12.8442 34.6585 12.5055C34.3303 12.1595 33.9113 11.9865 33.4015 11.9865C33.0733 11.9865 32.7765 12.0675 32.5111 12.2294C32.2458 12.384 32.0363 12.6012 31.8827 12.881C31.729 13.1534 31.6522 13.4552 31.6522 13.7865C31.6522 14.0883 31.729 14.3791 31.8827 14.6589C32.0433 14.9386 32.2563 15.1669 32.5216 15.3436C32.794 15.5129 33.0873 15.5975 33.4015 15.5975Z" fill="url(#paint1_linear_171_1028)"/>
<path d="M38.4404 14.1819C38.5172 14.6236 38.7058 14.977 39.006 15.242C39.3133 15.4997 39.6974 15.6285 40.1583 15.6285C40.8985 15.6285 41.4851 15.3267 41.9181 14.723L42.8084 15.3635C42.5361 15.9083 42.166 16.3168 41.6981 16.5892C41.2302 16.8616 40.7169 16.9978 40.1583 16.9978C39.6066 16.9978 39.0968 16.8543 38.6289 16.5672C38.1611 16.2727 37.7875 15.8788 37.5081 15.3856C37.2358 14.885 37.0996 14.3402 37.0996 13.7512C37.0996 13.1623 37.2358 12.6212 37.5081 12.1279C37.7875 11.6346 38.1611 11.2445 38.6289 10.9573C39.0968 10.6629 39.6066 10.5156 40.1583 10.5156C40.7449 10.5156 41.2616 10.6702 41.7086 10.9794C42.1555 11.2886 42.4977 11.723 42.7351 12.2825C42.9725 12.8346 43.0808 13.4678 43.0598 14.1819H38.4404ZM40.1583 11.8629C39.7253 11.8629 39.3552 11.9954 39.0479 12.2604C38.7477 12.5181 38.5486 12.8494 38.4509 13.2543H41.8028C41.719 12.8199 41.5235 12.4813 41.2162 12.2383C40.916 11.988 40.5633 11.8629 40.1583 11.8629Z" fill="url(#paint2_linear_171_1028)"/>
<path d="M45.7409 13.6024C45.7409 14.2576 45.7723 14.6993 45.8352 14.9275C45.898 15.1557 46.0447 15.303 46.2751 15.3692C46.5126 15.4281 46.9699 15.4576 47.6473 15.4576V16.8379C46.6138 16.8379 45.8771 16.7496 45.4371 16.5729C44.9972 16.3962 44.7178 16.1017 44.5991 15.6895C44.4874 15.2699 44.4315 14.5741 44.4315 13.6024V12.0011H43.2793V10.5876H44.4315V8.44531H45.7409V10.5876H47.6368V12.0011H45.7409V13.6024Z" fill="url(#paint3_linear_171_1028)"/>
<path d="M50.577 10.5156C51.5617 10.5156 52.2949 10.7586 52.7768 11.2445C53.2586 11.723 53.4995 12.4481 53.4995 13.4199V16.8322H52.2111L52.4206 14.7119H52.2635C52.0121 16.2285 51.2579 16.9868 50.0009 16.9868C49.2816 16.9868 48.7439 16.8248 48.3877 16.5009C48.0316 16.177 47.8535 15.7169 47.8535 15.1205C47.8535 14.48 48.0944 13.9794 48.5763 13.6187C49.0581 13.2579 49.753 13.0776 50.6608 13.0776H52.1902C52.1203 12.6874 51.9527 12.4003 51.6874 12.2162C51.4289 12.0248 51.0589 11.9291 50.577 11.9291C50.2418 11.9291 49.959 12.0027 49.7285 12.15C49.4981 12.2899 49.2781 12.5107 49.0686 12.8126L48.0002 12.0506C48.3354 11.5426 48.709 11.1598 49.121 10.9021C49.54 10.6445 50.0253 10.5156 50.577 10.5156ZM50.1999 15.5623C50.7865 15.5623 51.237 15.4297 51.5512 15.1647C51.8655 14.8997 52.0645 14.5095 52.1483 13.9942H50.6608C50.158 13.9942 49.7879 14.0641 49.5504 14.204C49.313 14.3365 49.1943 14.5426 49.1943 14.8224C49.1943 15.0432 49.2781 15.2236 49.4457 15.3635C49.6133 15.496 49.8647 15.5623 50.1999 15.5623Z" fill="url(#paint4_linear_171_1028)"/>
</g>
</g>
<defs>
<linearGradient id="paint0_linear_171_1028" x1="2.774" y1="1.168" x2="25.8015" y2="24.1037" gradientUnits="userSpaceOnUse">
<stop stop-color="#3B95FF"/>
<stop offset="0.5" stop-color="#18B6D6"/>
<stop offset="1" stop-color="#1BCF58"/>
</linearGradient>
<linearGradient id="paint1_linear_171_1028" x1="30.1543" y1="8" x2="36.1959" y2="23.6707" gradientUnits="userSpaceOnUse">
<stop stop-color="#3B95FF"/>
<stop offset="0.508333" stop-color="#18B6D6"/>
<stop offset="1" stop-color="#1BCF58"/>
</linearGradient>
<linearGradient id="paint2_linear_171_1028" x1="30.1534" y1="7.99783" x2="36.1951" y2="23.6686" gradientUnits="userSpaceOnUse">
<stop stop-color="#3B95FF"/>
<stop offset="0.508333" stop-color="#18B6D6"/>
<stop offset="1" stop-color="#1BCF58"/>
</linearGradient>
<linearGradient id="paint3_linear_171_1028" x1="30.1542" y1="8.00359" x2="36.1958" y2="23.6743" gradientUnits="userSpaceOnUse">
<stop stop-color="#3B95FF"/>
<stop offset="0.508333" stop-color="#18B6D6"/>
<stop offset="1" stop-color="#1BCF58"/>
</linearGradient>
<linearGradient id="paint4_linear_171_1028" x1="30.1554" y1="7.99783" x2="36.1971" y2="23.6686" gradientUnits="userSpaceOnUse">
<stop stop-color="#3B95FF"/>
<stop offset="0.508333" stop-color="#18B6D6"/>
<stop offset="1" stop-color="#1BCF58"/>
</linearGradient>
<clipPath id="clip0_171_1028">
<rect width="99" height="24" fill="white" transform="translate(0.154297 0.5)"/>
</clipPath>
<clipPath id="clip1_171_1028">
<rect width="24" height="24" fill="white" transform="translate(2.1543 0.5)"/>
</clipPath>
<clipPath id="clip2_171_1028">
<rect width="67" height="9" fill="white" transform="translate(30.1543 8)"/>
</clipPath>
</defs>
</svg>
