<svg width="32" height="32" viewBox="0 0 32 32" fill="none" xmlns="http://www.w3.org/2000/svg">
<path fill-rule="evenodd" clip-rule="evenodd" d="M2.0907 3.98038C2.0907 3.45322 2.51804 3.02588 3.0452 3.02588H7.0452C7.51632 3.02588 7.91698 3.36962 7.9886 3.83526L9.70995 15.0259H23.6589L26.1274 6.38449C26.2722 5.87761 26.8005 5.58408 27.3074 5.72888C27.8143 5.87367 28.1078 6.40196 27.963 6.90884L25.2967 16.2426C25.1796 16.6523 24.8051 16.9349 24.3789 16.9349H10.0036L10.5304 20.3596H25.7115C26.2386 20.3596 26.666 20.7869 26.666 21.3141C26.666 21.8412 26.2386 22.2686 25.7115 22.2686H9.71148C9.24036 22.2686 8.83971 21.9249 8.76808 21.4592L7.96777 16.2563C7.94264 16.173 7.9286 16.0849 7.92736 15.9936L6.22629 4.93488H3.0452C2.51804 4.93488 2.0907 4.50753 2.0907 3.98038ZM17.0452 3.02588C17.5724 3.02588 17.9997 3.45322 17.9997 3.98038V6.35959H20.3789C20.9061 6.35959 21.3334 6.78694 21.3334 7.31409C21.3334 7.84125 20.9061 8.26859 20.3789 8.26859H17.9997V10.6467C17.9997 11.1738 17.5724 11.6012 17.0452 11.6012C16.518 11.6012 16.0907 11.1738 16.0907 10.6467V8.26859H13.7115C13.1843 8.26859 12.757 7.84125 12.757 7.31409C12.757 6.78694 13.1843 6.35959 13.7115 6.35959H16.0907V3.98038C16.0907 3.45322 16.518 3.02588 17.0452 3.02588ZM9.71206 26.3065C9.6134 26.3065 9.51863 26.3449 9.44786 26.4137C9.37709 26.4824 9.33589 26.576 9.333 26.6746C9.33152 26.7253 9.34022 26.7758 9.35861 26.8231C9.37699 26.8704 9.40467 26.9135 9.44001 26.9499C9.47536 26.9863 9.51765 27.0152 9.56438 27.035C9.6111 27.0547 9.66132 27.0649 9.71206 27.0649C9.76279 27.0649 9.81301 27.0547 9.85974 27.035C9.90646 27.0152 9.94875 26.9863 9.9841 26.9499C10.0194 26.9135 10.0471 26.8704 10.0655 26.8231C10.0839 26.7758 10.0926 26.7253 10.0911 26.6746C10.0882 26.576 10.047 26.4824 9.97625 26.4137C9.90548 26.3449 9.81071 26.3065 9.71206 26.3065ZM8.1179 25.0442C8.54494 24.6295 9.11678 24.3975 9.71206 24.3975C10.3073 24.3975 10.8792 24.6295 11.3062 25.0442C11.7333 25.4589 11.9819 26.0237 11.9993 26.6187C12.0083 26.9247 11.9557 27.2294 11.8448 27.5147C11.7339 27.8001 11.5668 28.0602 11.3536 28.2799C11.1403 28.4995 10.8851 28.6741 10.6032 28.7933C10.3212 28.9125 10.0182 28.9739 9.71206 28.9739C9.40593 28.9739 9.10291 28.9125 8.82095 28.7933C8.53899 28.6741 8.28381 28.4995 8.07054 28.2799C7.85726 28.0602 7.69022 27.8001 7.57931 27.5147C7.46839 27.2294 7.41586 26.9247 7.42482 26.6187C7.44225 26.0237 7.69086 25.4589 8.1179 25.0442ZM24.3783 26.3065C24.2797 26.3065 24.1849 26.3449 24.1141 26.4137C24.0434 26.4824 24.0022 26.576 23.9993 26.6746C23.9978 26.7253 24.0065 26.7758 24.0249 26.8231C24.0433 26.8704 24.071 26.9135 24.1063 26.9499C24.1416 26.9863 24.1839 27.0152 24.2307 27.035C24.2774 27.0547 24.3276 27.0649 24.3783 27.0649C24.4291 27.0649 24.4793 27.0547 24.526 27.035C24.5728 27.0152 24.615 26.9863 24.6504 26.9499C24.6857 26.9135 24.7134 26.8704 24.7318 26.8231C24.7502 26.7758 24.7589 26.7253 24.7574 26.6746C24.7545 26.576 24.7133 26.4824 24.6425 26.4137C24.5718 26.3449 24.477 26.3065 24.3783 26.3065ZM22.7842 25.0442C23.2112 24.6295 23.7831 24.3975 24.3783 24.3975C24.9736 24.3975 25.5455 24.6295 25.9725 25.0442C26.3995 25.4589 26.6482 26.0237 26.6656 26.6187C26.6745 26.9247 26.622 27.2294 26.5111 27.5147C26.4002 27.8001 26.2331 28.0602 26.0199 28.2799C25.8066 28.4995 25.5514 28.6741 25.2695 28.7933C24.9875 28.9125 24.6845 28.9739 24.3783 28.9739C24.0722 28.9739 23.7692 28.9125 23.4872 28.7933C23.2053 28.6741 22.9501 28.4995 22.7368 28.2799C22.5235 28.0602 22.3565 27.8001 22.2456 27.5147C22.1347 27.2294 22.0821 26.9247 22.0911 26.6187C22.1085 26.0237 22.3571 25.4589 22.7842 25.0442Z" fill="#29AAEC"/>
</svg>
