<svg width="32" height="32" viewBox="0 0 32 32" fill="none" xmlns="http://www.w3.org/2000/svg">
<path fill-rule="evenodd" clip-rule="evenodd" d="M16 3.04492C16.5275 3.04492 16.955 3.47249 16.955 3.99992V5.33326C16.955 5.86069 16.5275 6.28826 16 6.28826C15.4726 6.28826 15.045 5.86069 15.045 5.33326V3.99992C15.045 3.47249 15.4726 3.04492 16 3.04492ZM6.83942 6.8393C7.21237 6.46635 7.81705 6.46635 8.19 6.8393L9.13293 7.78224C9.50588 8.15519 9.50588 8.75986 9.13293 9.13281C8.75998 9.50576 8.15531 9.50576 7.78236 9.13281L6.83942 8.18988C6.46647 7.81693 6.46647 7.21225 6.83942 6.8393ZM25.1607 6.8393C25.5336 7.21225 25.5336 7.81693 25.1607 8.18988L24.2177 9.13281C23.8448 9.50576 23.2401 9.50576 22.8672 9.13281C22.4942 8.75986 22.4942 8.15519 22.8672 7.78223L23.8101 6.8393C24.183 6.46635 24.7877 6.46635 25.1607 6.8393ZM16 10.2883C14.4852 10.2883 13.0324 10.89 11.9613 11.9612C10.8901 13.0323 10.2884 14.4851 10.2884 15.9999C10.2884 16.75 10.4361 17.4927 10.7232 18.1857C11.0102 18.8787 11.4309 19.5083 11.9613 20.0387C12.4917 20.5691 13.1213 20.9898 13.8143 21.2768C14.5073 21.5639 15.25 21.7116 16 21.7116C16.7501 21.7116 17.4928 21.5639 18.1858 21.2768C18.8788 20.9898 19.5084 20.5691 20.0388 20.0387C20.5692 19.5083 20.9899 18.8787 21.2769 18.1857C21.564 17.4927 21.7117 16.75 21.7117 15.9999C21.7117 14.4851 21.1099 13.0323 20.0388 11.9612C18.9677 10.89 17.5149 10.2883 16 10.2883ZM10.6107 10.6106C12.0401 9.18125 13.9787 8.37826 16 8.37826C18.0214 8.37826 19.96 9.18125 21.3894 10.6106C22.8187 12.0399 23.6217 13.9785 23.6217 15.9999C23.6217 17.0008 23.4246 17.9919 23.0415 18.9166C22.6585 19.8413 22.0971 20.6815 21.3894 21.3893C20.8661 21.9125 20.2704 22.3558 19.6217 22.7061V25.3333C19.6217 26.2938 19.2401 27.215 18.561 27.8942C17.8818 28.5734 16.9606 28.9549 16 28.9549C15.0395 28.9549 14.1183 28.5734 13.4391 27.8942C12.7599 27.215 12.3784 26.2938 12.3784 25.3333V22.7061C11.7297 22.3558 11.134 21.9125 10.6107 21.3893C9.90297 20.6815 9.34157 19.8413 8.95854 18.9166C8.57552 17.9919 8.37838 17.0008 8.37838 15.9999C8.37838 13.9785 9.18137 12.0399 10.6107 10.6106ZM14.2884 23.4269V25.3333C14.2884 25.7872 14.4687 26.2226 14.7897 26.5436C15.1107 26.8646 15.5461 27.0449 16 27.0449C16.454 27.0449 16.8894 26.8646 17.2104 26.5436C17.5314 26.2226 17.7117 25.7872 17.7117 25.3333V23.4269C17.1517 23.556 16.5775 23.6216 16 23.6216C15.4226 23.6216 14.8484 23.556 14.2884 23.4269ZM3.04504 15.9999C3.04504 15.4725 3.47261 15.0449 4.00004 15.0449H5.33338C5.86081 15.0449 6.28838 15.4725 6.28838 15.9999C6.28838 16.5274 5.86081 16.9549 5.33338 16.9549H4.00004C3.47261 16.9549 3.04504 16.5274 3.04504 15.9999ZM25.7117 15.9999C25.7117 15.4725 26.1393 15.0449 26.6667 15.0449H28C28.5275 15.0449 28.955 15.4725 28.955 15.9999C28.955 16.5274 28.5275 16.9549 28 16.9549H26.6667C26.1393 16.9549 25.7117 16.5274 25.7117 15.9999Z" fill="#29AAEC"/>
</svg>
