<svg width="12" height="16" viewBox="0 0 12 16" fill="none" xmlns="http://www.w3.org/2000/svg">
<path d="M5.29372 0.457363L0.145886 9.07094C-0.0491564 9.38954 -0.0485912 9.78394 0.147364 10.102C0.34332 10.4201 0.704049 10.6122 1.09044 10.6042H3.79187C4.13921 10.6018 4.47319 10.7319 4.71969 10.9656C4.96619 11.1993 5.10482 11.5172 5.10481 11.8489V15.1049C5.10801 15.5005 5.38074 15.8479 5.77747 15.9618C6.17419 16.0756 6.60231 15.9293 6.83335 15.601L11.8206 8.45761C12.0389 8.14332 12.0594 7.74015 11.8742 7.40708C11.689 7.07401 11.3276 6.86451 10.9327 6.86117H8.36353C7.64363 6.86117 7.06004 6.30391 7.06004 5.61649V0.908335C7.06305 0.497596 6.77505 0.136792 6.35949 0.0306933C5.94393 -0.0754056 5.50579 0.100001 5.29372 0.457363Z" fill="#29AAEC"/>
</svg>
