<svg width="32" height="32" viewBox="0 0 32 32" fill="none" xmlns="http://www.w3.org/2000/svg">
<path fill-rule="evenodd" clip-rule="evenodd" d="M12.1861 13.3111C14.3339 12.2848 15.7663 11.6083 16.4832 11.2814C18.529 10.3477 18.953 10.1843 19.2295 10.1797C19.3326 10.1778 19.4333 10.2109 19.5152 10.2734C19.5759 10.3312 19.6133 10.4093 19.6204 10.4928C19.6307 10.5557 19.6432 10.6986 19.6318 10.8106C19.5221 12.0883 19.0421 15.19 18.7975 16.6208C18.6947 17.2266 18.4912 17.4288 18.2947 17.4494C17.8672 17.4917 17.5427 17.1386 17.1278 16.8414C16.4798 16.3751 16.113 16.0848 15.4844 15.63C14.7564 15.1043 15.2284 14.8151 15.6421 14.3431C15.7507 14.2186 17.6352 12.3386 17.6718 12.1683C17.6764 12.1454 17.681 12.0666 17.6375 12.0254C17.5952 11.9831 17.5312 11.9968 17.4855 12.0083C17.4208 12.0243 16.385 12.7755 14.3781 14.262C14.084 14.4829 13.8177 14.5907 13.5792 14.5854C13.3164 14.5797 12.8101 14.422 12.4341 14.2883C11.9724 14.1237 11.6067 14.0368 11.6387 13.7568C11.6547 13.6121 11.8364 13.4635 12.1861 13.3111Z" fill="#29AAEC"/>
<path fill-rule="evenodd" clip-rule="evenodd" d="M25.5608 4.41843C25.0773 4.37913 24.4847 4.37914 23.7703 4.37915H8.22736C7.51419 4.37914 6.92143 4.37913 6.43767 4.4186C5.93412 4.45968 5.46431 4.54867 5.02218 4.77372C4.34197 5.1208 3.78757 5.67326 3.43965 6.35666C3.21465 6.79869 3.12606 7.2673 3.08496 7.77086C3.04548 8.25449 3.04549 8.84726 3.04551 9.56094L3.04551 20.3792H2.66629C2.13914 20.3792 1.71179 20.8065 1.71179 21.3337L1.71179 22.4378C1.71178 23.152 1.71177 23.7451 1.75124 24.2288C1.79233 24.7325 1.88098 25.2012 2.10594 25.6432C2.453 26.3252 3.00796 26.8799 3.68999 27.2269C4.13222 27.4516 4.60075 27.5402 5.10453 27.5813C5.58829 27.6207 6.18105 27.6207 6.89477 27.6207H25.1052C25.819 27.6207 26.412 27.6207 26.8958 27.5813C27.3992 27.5402 27.8683 27.4516 28.3103 27.2262C28.992 26.879 29.5461 26.3253 29.8926 25.645C30.1183 25.2025 30.2073 24.7335 30.2486 24.2294C30.2882 23.7455 30.2882 23.1526 30.2882 22.439V21.3337C30.2882 20.8065 29.8609 20.3792 29.3337 20.3792H28.9534V9.56098C28.9534 8.84727 28.9534 8.2545 28.9139 7.77074C28.8728 7.26697 28.7839 6.79788 28.5593 6.35565C28.2122 5.67357 27.6578 5.11914 26.9757 4.77208L26.9738 4.77112C26.532 4.54757 26.0643 4.45937 25.5608 4.41843ZM27.0444 20.3792V9.59994C27.0444 8.83735 27.0436 8.32288 27.0112 7.92599C26.9798 7.54056 26.9233 7.35023 26.8577 7.22104C26.694 6.89943 26.4326 6.63793 26.1111 6.47405C25.9815 6.40864 25.7909 6.35244 25.4061 6.32116C25.0092 6.28889 24.4946 6.28815 23.7314 6.28815H8.26629C7.50429 6.28815 6.98981 6.28889 6.59292 6.32128C6.20738 6.35273 6.0175 6.40924 5.88934 6.4744C5.56637 6.63933 5.30494 6.90052 5.14093 7.22264C5.07566 7.3509 5.0191 7.54062 4.98763 7.92616C4.95525 8.32289 4.95451 8.83734 4.95451 9.59994V20.3792H27.0444ZM28.3792 22.2881H3.62079V22.3988C3.62079 23.162 3.62153 23.6767 3.65392 24.0736C3.68539 24.4593 3.74201 24.6491 3.80729 24.7774C3.97113 25.0994 4.23283 25.3611 4.55478 25.525C4.68397 25.5906 4.87431 25.6471 5.25977 25.6786C5.65667 25.711 6.17114 25.7117 6.93372 25.7117H25.0663C25.8289 25.7117 26.3436 25.711 26.7405 25.6786C27.1265 25.6471 27.3163 25.5902 27.4435 25.5253C27.767 25.3607 28.0289 25.098 28.192 24.7777C28.2577 24.6488 28.3144 24.4589 28.346 24.0736C28.3785 23.6769 28.3792 23.1626 28.3792 22.3999V22.2881Z" fill="#29AAEC"/>
</svg>
