<svg width="32" height="32" viewBox="0 0 32 32" fill="none" xmlns="http://www.w3.org/2000/svg">
<path fill-rule="evenodd" clip-rule="evenodd" d="M7.5625 7.03683C7.56253 6.51546 7.9215 6.26863 8.15844 6.26863H24.1222C24.3591 6.26863 24.7181 6.51548 24.7181 7.03689V18.198H7.56321L7.5625 7.03683ZM7.56334 20.108H24.7181V23.8108C24.7181 24.3327 24.3598 24.5791 24.1222 24.5791H8.1595C7.92256 24.5791 7.56357 24.3322 7.56357 23.8108L7.56334 20.108ZM8.15844 4.35863C6.68232 4.35863 5.6525 5.65489 5.6525 7.03689L5.65357 23.8109C5.6536 25.1929 6.6834 26.4891 8.1595 26.4891H11.5756C12.0177 26.4888 12.4589 26.6177 12.8556 26.8727C13.2533 27.1284 13.5953 27.5042 13.8369 27.9719L14.9393 30.0991L14.9415 30.1033C15.0379 30.2871 15.1826 30.4522 15.3708 30.5723C15.5601 30.6932 15.7834 30.7618 16.0176 30.7618C16.2519 30.7618 16.4752 30.6932 16.6645 30.5723C16.8527 30.4522 16.9974 30.2871 17.0938 30.1033L17.0961 30.0988L18.1973 27.9719C18.4389 27.5042 18.7809 27.1284 19.1786 26.8727C19.5753 26.6177 20.0171 26.4888 20.4592 26.4891H24.1222C25.5998 26.4891 26.6281 25.1924 26.6281 23.8108V7.03689C26.6281 5.65489 25.5983 4.35863 24.1222 4.35863H8.15844Z" fill="#29AAEC"/>
<path fill-rule="evenodd" clip-rule="evenodd" d="M16.1968 1.23804C16.7243 1.23804 17.1518 1.66561 17.1518 2.19304V5.16311C17.1518 5.69054 16.7243 6.11811 16.1968 6.11811C15.6694 6.11811 15.2418 5.69054 15.2418 5.16311V2.19304C15.2418 1.66561 15.6694 1.23804 16.1968 1.23804ZM1.9163 8.65019C2.44374 8.65019 2.8713 9.07775 2.8713 9.60519V16.8585C2.8713 17.386 2.44374 17.8135 1.9163 17.8135C1.38887 17.8135 0.961304 17.386 0.961304 16.8585V9.60519C0.961304 9.07775 1.38887 8.65019 1.9163 8.65019ZM30.0838 8.65019C30.6112 8.65019 31.0388 9.07775 31.0388 9.60519V16.8585C31.0388 17.386 30.6112 17.8135 30.0838 17.8135C29.5563 17.8135 29.1288 17.386 29.1288 16.8585V9.60519C29.1288 9.07775 29.5563 8.65019 30.0838 8.65019Z" fill="#29AAEC"/>
<path d="M11.7648 14.884C12.5643 14.884 13.2123 14.1639 13.2123 13.2757C13.2123 12.3875 12.5643 11.6674 11.7648 11.6674C10.9654 11.6674 10.3174 12.3875 10.3174 13.2757C10.3174 14.1639 10.9654 14.884 11.7648 14.884Z" fill="#29AAEC"/>
<path d="M20.264 14.884C21.0634 14.884 21.7115 14.1639 21.7115 13.2757C21.7115 12.3875 21.0634 11.6674 20.264 11.6674C19.4646 11.6674 18.8166 12.3875 18.8166 13.2757C18.8166 14.1639 19.4646 14.884 20.264 14.884Z" fill="#29AAEC"/>
</svg>
