<svg width="140" height="25" viewBox="0 0 140 25" fill="none" xmlns="http://www.w3.org/2000/svg">
<g clip-path="url(#clip0_171_981)">
<path d="M0 2.5V23.5H20.958L0 2.5Z" fill="white"/>
<path d="M0 2.5V23.5H20.958L0 2.5Z" fill="#0A3E70" fill-opacity="0.7"/>
<path d="M20.958 2.5H0V23.5L20.958 2.5Z" fill="#023D5E"/>
<path d="M20.958 2.5H0V23.5L20.958 2.5Z" fill="#3742CD" fill-opacity="0.16"/>
<path d="M93.5498 6.32031C90.472 6.32031 87.7695 8.81855 87.7695 11.9023V18.7286H90.2478V16.245H96.8511V18.7286H99.3301V11.9023C99.3301 8.81855 96.627 6.32031 93.5498 6.32031ZM96.8511 13.7663H90.2478V11.9072C90.2478 10.1945 91.8401 8.80391 93.5498 8.80391C95.2588 8.80391 96.8511 10.1945 96.8511 11.9072V13.7663Z" fill="#0A3E70"/>
<path d="M127.812 6.32031C124.734 6.32031 122.031 8.81855 122.031 11.9023V18.7286H124.51V16.245H131.113V18.7286H133.592V11.9023C133.592 8.81855 130.889 6.32031 127.812 6.32031ZM131.113 13.7663H124.51V11.9072C124.51 10.1945 126.102 8.80391 127.812 8.80391C129.521 8.80391 131.113 10.1945 131.113 11.9072V13.7663Z" fill="#0A3E70"/>
<path d="M68.3699 6.32031C64.9515 6.32031 62.1758 9.09667 62.1758 12.5269C62.1758 15.9522 64.9466 18.7335 68.3699 18.7335C71.7887 18.7335 74.5639 15.957 74.5639 12.5269C74.5639 9.09667 71.7887 6.32031 68.3699 6.32031ZM68.3699 16.245C66.3199 16.245 64.6544 14.5762 64.6544 12.522C64.6544 10.4678 66.3199 8.79903 68.3699 8.79903C70.4201 8.79903 72.0857 10.4678 72.0857 12.522C72.0857 14.5811 70.4201 16.245 68.3699 16.245Z" fill="#0A3E70"/>
<path d="M59.5483 11.8731C59.8551 11.3314 60.0304 10.7118 60.0304 10.0433C60.0304 7.98906 58.3651 6.32031 56.3149 6.32031H51.4453V18.7286H57.5567C59.6068 18.7286 61.2722 17.0598 61.2722 15.0056C61.2673 13.6931 60.5807 12.5367 59.5483 11.8731ZM53.9191 8.80391H56.3149C56.9967 8.80391 57.5518 9.36016 57.5518 10.0433C57.5518 10.7264 56.9967 11.2826 56.3149 11.2826H53.9191V8.80391ZM57.5518 16.2498H53.9191V13.7662H57.5518C58.2335 13.7662 58.7887 14.3225 58.7887 15.0056C58.7887 15.6887 58.2335 16.2498 57.5518 16.2498Z" fill="#0A3E70"/>
<path d="M43.8035 6.32031C40.3851 6.32031 37.6094 9.09667 37.6094 12.5269C37.6094 15.9522 40.3802 18.7335 43.8035 18.7335C47.2268 18.7335 49.9977 15.957 49.9977 12.5269C49.9977 9.09667 47.222 6.32031 43.8035 6.32031ZM43.8035 16.245C41.7534 16.245 40.088 14.5762 40.088 12.522C40.088 10.4678 41.7534 8.79903 43.8035 8.79903C45.8536 8.79903 47.519 10.4678 47.519 12.522C47.519 14.5811 45.8536 16.245 43.8035 16.245Z" fill="#0A3E70"/>
<path d="M107.161 11.307L107.175 11.2827H104.287C103.605 11.2827 103.05 10.7264 103.05 10.0433C103.05 9.36016 103.605 8.80391 104.287 8.80391H108.826L110.477 6.32031H104.282C102.232 6.32031 100.566 7.98906 100.566 10.0433C100.566 11.9657 102.018 13.5467 103.883 13.7418L103.868 13.7663H106.756C107.438 13.7663 107.993 14.3225 107.993 15.0056C107.993 15.6887 107.438 16.245 106.756 16.245H102.217L100.566 18.7286H106.761C108.811 18.7286 110.477 17.0598 110.477 15.0056C110.477 13.0831 109.02 11.5022 107.161 11.307Z" fill="#0A3E70"/>
<path d="M114.598 6.32031C112.549 6.32031 110.883 7.98906 110.883 10.0433C110.883 11.9657 112.334 13.5467 114.199 13.7418L114.185 13.7663H117.073C117.754 13.7663 118.309 14.3225 118.309 15.0056C118.309 15.6887 117.754 16.245 117.073 16.245H112.534L110.883 18.7286H117.077C119.127 18.7286 120.792 17.0598 120.792 15.0056C120.792 13.0831 119.341 11.5022 117.476 11.307L117.491 11.2827H114.603C113.922 11.2827 113.367 10.7264 113.367 10.0433C113.367 9.36016 113.922 8.80391 114.603 8.80391H119.142L120.792 6.32031H114.598Z" fill="#0A3E70"/>
<path d="M29.1544 18.7285H26.6758V6.32031H32.5095C33.5517 6.32031 34.4477 6.67651 35.2025 7.39378C35.9719 8.1208 36.5708 9.18939 36.5854 10.2482C36.5952 11.2094 36.3663 11.9901 35.7576 12.7318C35.1781 13.4491 34.5889 13.9907 33.6929 14.181L36.7899 18.7285H33.9023L30.9903 14.4347C30.8734 14.2737 30.6883 14.181 30.4887 14.181H29.1544V18.7285ZM29.1544 11.9024H32.456C33.3667 11.9024 34.1068 11.1606 34.1068 10.2482C34.1068 9.33577 33.3667 8.5941 32.456 8.5941H29.1544V11.9024Z" fill="#0A3E70"/>
<path d="M86.4073 6.32031L81.3425 11.7218L86.5338 18.7237H83.6462L79.6965 13.4734L78.6938 14.6738V18.7188H76.2148V6.32031H78.6938V11.2143L83.159 6.32031H86.4073Z" fill="#0A3E70"/>
</g>
<defs>
<clipPath id="clip0_171_981">
<rect width="140" height="21" fill="white" transform="translate(0 2)"/>
</clipPath>
</defs>
</svg>
