<svg width="47" height="25" viewBox="0 0 47 25" fill="none" xmlns="http://www.w3.org/2000/svg">
<g clip-path="url(#clip0_171_1013)">
<g clip-path="url(#clip1_171_1013)">
<path d="M44.9396 9.50781V15.5525H42.7999V11.3025H40.737V15.5525H38.5977V9.50781H44.9445H44.9396Z" fill="black"/>
<path d="M37.5486 12.8637C37.5486 14.6333 36.0698 15.7979 34.0829 15.7979C32.0959 15.7979 30.5156 14.5577 30.5156 11.7798C30.5156 9.38006 32.0452 7.40376 34.3369 7.37859C35.333 7.37859 37.4723 7.32812 37.4723 7.32812L36.5018 9.09775H34.5656C33.5442 9.09775 32.7058 9.82872 32.5534 10.8421C33.1123 10.3379 33.8542 10.0606 34.6165 10.0606C36.451 10.0606 37.5486 11.1748 37.5486 12.8688V12.8637ZM35.333 12.8637C35.333 12.0823 34.8248 11.6235 34.0829 11.6235C33.3409 11.6235 32.8074 12.1025 32.8074 12.8889C32.8074 13.62 33.3156 14.1795 34.0829 14.1795C34.8502 14.1795 35.333 13.5746 35.333 12.8637Z" fill="black"/>
<path d="M28.8085 13.7279C28.402 13.9296 27.965 14.0555 27.5076 14.0808C26.6133 14.106 25.8256 13.5514 25.8256 12.5885C25.8256 11.6256 26.5371 11.0962 27.4822 11.0962C28.0666 11.0962 28.8593 11.4995 28.8593 11.4995C28.8593 11.4995 29.4184 10.4862 29.7284 9.98204C29.1185 9.55354 28.3766 9.35187 27.6143 9.3771C25.5004 9.3771 23.8438 10.7181 23.8438 12.6137C23.8438 14.5093 25.3988 15.8252 27.6143 15.7999C28.2242 15.7747 29.0931 15.573 29.6013 15.2454L28.8136 13.7279H28.8085Z" fill="black"/>
<path d="M1.38281 5.78906L4.36557 11.0218V14.2331L1.40823 19.4658L1.38281 5.78906Z" fill="#5B57A2"/>
<path d="M12.8008 9.12361L15.5804 7.42969H21.2872L12.8008 12.5619V9.12361Z" fill="#D90751"/>
<path d="M12.7739 5.76334L12.7994 12.6903L9.81641 10.8956V0.5L12.7739 5.76334Z" fill="#FAB718"/>
<path d="M21.2857 7.43202H15.579L12.7739 5.76334L9.81641 0.5L21.2857 7.43202Z" fill="#ED6F26"/>
<path d="M12.7994 19.5168V16.1289L9.81641 14.3594V24.7499L12.7994 19.5168Z" fill="#63B22F"/>
<path d="M15.5801 17.8224L4.36557 11.0218L1.38281 5.78906L21.261 17.8224H15.5801Z" fill="#1487C9"/>
<path d="M9.81641 24.7473L12.7994 19.5142L15.579 17.8203H21.2603L9.81641 24.7473Z" fill="#017F36"/>
<path d="M1.41016 19.4668L9.84568 14.3598L7.02029 12.6406L4.36767 14.2338L1.41016 19.4668Z" fill="#984995"/>
</g>
</g>
<defs>
<clipPath id="clip0_171_1013">
<rect width="47" height="24" fill="white" transform="translate(0 0.5)"/>
</clipPath>
<clipPath id="clip1_171_1013">
<rect width="47" height="24" fill="white" transform="translate(0 0.5)"/>
</clipPath>
</defs>
</svg>
