<svg width="96" height="27" viewBox="0 0 96 27" fill="none" xmlns="http://www.w3.org/2000/svg">
<g clip-path="url(#clip0_1_15887)">
<path d="M6.75446 0C4.96307 0 3.24504 0.711159 1.97834 1.97703C0.711628 3.2429 0 4.95979 0 6.75L0 20.25C0 22.0402 0.711628 23.7571 1.97834 25.023C3.24504 26.2888 4.96307 27 6.75446 27H20.2634C22.0548 27 23.7728 26.2888 25.0395 25.023C26.3062 23.7571 27.0178 22.0402 27.0178 20.25V0H6.75446Z" fill="#B1EC52"/>
<path d="M22.3265 10.1224H19.0837L15.9945 13.5001V6.75012H13.4924V8.39512C13.412 8.28911 13.3242 8.18493 13.2291 8.08257C12.7171 7.57993 12.1054 7.18998 11.4335 6.93783C10.7616 6.68568 10.0443 6.57691 9.32783 6.61852C8.64001 6.58686 7.95426 6.71554 7.32479 6.99439C6.69531 7.27323 6.13938 7.69458 5.70094 8.22514C5.34614 8.65913 5.08898 9.16438 4.94697 9.70653C4.80495 10.2487 4.78139 10.815 4.8779 11.3671C5.45951 13.9662 7.87378 14.3829 9.64607 14.6132C11.0452 14.7942 12.3896 15.0519 12.3511 16.2966C12.3127 17.5413 10.8532 17.8978 9.87652 17.8978C7.37995 17.8978 7.29765 16.0554 7.29765 16.0554H4.63098C4.67707 17.0667 5.06379 18.0329 5.72838 18.797C6.66116 19.8443 8.06034 20.3708 9.8875 20.3708C11.2016 20.4005 12.4814 19.9501 13.4869 19.1041V20.2008H15.989V17.0478L16.8779 16.0828L19.4074 20.2337H22.321L18.6557 14.1526L22.3265 10.1224ZM7.38544 10.7804C7.16596 9.81531 8.12618 8.95991 9.37721 8.95991C10.4746 8.95991 11.6214 9.21214 12.0494 10.7804H13.4924V13.1601C11.6982 11.6906 7.80245 12.6118 7.38544 10.7804Z" fill="#4D5759"/>
<path d="M38.31 12.7926C38.2296 12.6602 38.1398 12.5337 38.0412 12.4143C37.9223 12.2872 37.7855 12.1782 37.6351 12.0907C37.4635 11.9881 37.279 11.9088 37.0864 11.855C36.83 11.7907 36.5661 11.7612 36.3018 11.7672C36.1527 11.7701 36.0041 11.7847 35.8573 11.8111C35.6694 11.8548 35.4857 11.9154 35.3086 11.9921C35.1126 12.0979 34.9286 12.2248 34.7599 12.3704C34.5698 12.545 34.4135 12.7532 34.299 12.9845C34.1351 13.2794 34.0167 13.5974 33.9479 13.9277C33.858 14.3549 33.8157 14.7907 33.8217 15.2272C33.8148 15.7187 33.872 16.209 33.9918 16.6858C34.0859 17.0782 34.2514 17.4499 34.4801 17.7825C34.6815 18.0676 34.9513 18.2976 35.2647 18.4514C35.5796 18.6152 35.9304 18.6981 36.2853 18.6927C36.6611 18.7068 37.0355 18.6394 37.3827 18.4953C37.6396 18.3747 37.8693 18.203 38.0576 17.9908C38.2111 17.8071 38.3301 17.5972 38.4088 17.3712C38.4911 17.1628 38.5624 16.9654 38.6063 16.8229H40.6914C40.6085 17.3996 40.4227 17.9568 40.1427 18.4679C39.8967 18.9094 39.569 19.3002 39.177 19.6194C38.7844 19.9238 38.3375 20.1508 37.8601 20.2884C36.7075 20.6339 35.4718 20.5798 34.3539 20.1348C33.8016 19.8966 33.3115 19.5345 32.9218 19.0765C32.5151 18.5822 32.211 18.0118 32.0274 17.3986C31.8103 16.6882 31.7066 15.948 31.7202 15.2053C31.712 14.6407 31.7728 14.0772 31.9012 13.5274C31.9987 13.066 32.1574 12.6198 32.3731 12.2004C32.5773 11.8305 32.8322 11.491 33.1303 11.1915C33.4057 10.9129 33.7221 10.678 34.0686 10.4951C34.4074 10.3127 34.7665 10.171 35.1385 10.0729C35.5097 9.99032 35.8886 9.94804 36.2689 9.94676C36.7607 9.93888 37.2515 9.99604 37.7284 10.1167C38.1125 10.2225 38.4813 10.3773 38.8258 10.5773C39.1297 10.7546 39.4052 10.9764 39.6434 11.2353C39.8505 11.4691 40.0343 11.7225 40.192 11.9921C40.3187 12.2446 40.4251 12.5068 40.5103 12.7762C40.5779 13.0141 40.6202 13.2586 40.6365 13.5055H38.5734L38.4746 13.16C38.4311 13.0328 38.376 12.9098 38.31 12.7926Z" fill="#4D5759"/>
<path d="M46.2771 12.8037H48.8341L45.7723 15.9018L48.9767 20.2556H46.4582L44.2634 17.1027L43.4788 17.9032V20.2556H41.5529V12.8037H43.4843V15.6331L46.2771 12.8037Z" fill="#4D5759"/>
<path d="M48.8889 14.9475C49.0458 14.4833 49.3045 14.0599 49.6461 13.7083C49.9841 13.3551 50.3938 13.0784 50.8478 12.8968C51.3514 12.6936 51.8905 12.593 52.4335 12.6007C52.9855 12.5915 53.5339 12.6922 54.0467 12.8968C54.4981 13.0772 54.9045 13.3542 55.2373 13.7083C55.5662 14.0778 55.8231 14.5056 55.9945 14.9695C56.331 15.9973 56.331 17.1055 55.9945 18.1334C55.8244 18.5979 55.5674 19.0259 55.2373 19.3945C54.9 19.7434 54.4948 20.0196 54.0467 20.2061C53.5339 20.4107 52.9855 20.5113 52.4335 20.5022C51.8905 20.5099 51.3514 20.4092 50.8478 20.2061C50.3971 20.0184 49.9885 19.7424 49.6461 19.3945C49.2967 19.0256 49.0375 18.5808 48.8889 18.095C48.5305 17.0708 48.5305 15.9553 48.8889 14.9311V14.9475ZM50.738 17.3547C50.7812 17.6193 50.8804 17.8717 51.0288 18.095C51.1637 18.3202 51.3522 18.5086 51.5775 18.6433C51.8359 18.7791 52.1253 18.8453 52.417 18.8352C52.7232 18.8492 53.0277 18.783 53.3004 18.6433C53.5213 18.5146 53.7092 18.3363 53.8491 18.1224C53.9929 17.9007 54.0917 17.6529 54.1399 17.3931C54.2569 16.8307 54.2569 16.2502 54.1399 15.6878C54.0908 15.4231 53.9922 15.1701 53.8491 14.9421C53.6986 14.7092 53.487 14.5221 53.2374 14.4013C52.9877 14.2804 52.7096 14.2304 52.4335 14.2566C52.1417 14.2466 51.8524 14.3127 51.594 14.4486C51.37 14.585 51.1819 14.773 51.0453 14.9969C50.8922 15.2194 50.7875 15.4716 50.738 15.7371C50.6778 16.0148 50.6447 16.2976 50.6393 16.5816C50.6473 16.8419 50.6804 17.1008 50.738 17.3547Z" fill="#4D5759"/>
<path d="M59.8902 14.3717L59.8628 15.759C59.8299 16.5431 59.775 17.2286 59.7037 17.8208C59.6428 18.3251 59.5155 18.8193 59.3251 19.2903C59.1705 19.646 58.9244 19.9544 58.6118 20.1841C58.2673 20.3942 57.8682 20.4973 57.465 20.4802C57.24 20.4802 57.059 20.4802 56.9163 20.4528C56.777 20.4302 56.6407 20.3915 56.5103 20.3376V18.6926L56.7627 18.7749C56.8795 18.7848 56.997 18.7848 57.1138 18.7749C57.2566 18.7816 57.3964 18.7324 57.5034 18.6378C57.6473 18.5116 57.7504 18.3456 57.7997 18.1607C57.8971 17.8407 57.9633 17.512 57.9972 17.1792C58.0356 16.7625 58.0631 16.2306 58.0795 15.5726L58.1344 12.7542H64.1317V20.2554H62.2167V14.3717H59.8902Z" fill="#4D5759"/>
<path d="M70.2332 12.8037H72.8121L69.7339 15.9018L72.9438 20.2556H70.4252L68.2305 17.1027L67.4458 17.9032V20.2556H65.5144V12.8037H67.4458V15.6331L70.2332 12.8037Z" fill="#4D5759"/>
<path d="M72.8505 14.9475C73.0093 14.4776 73.2675 14.0474 73.6077 13.6863C73.9487 13.3342 74.36 13.0577 74.8149 12.8748C75.3184 12.6712 75.8575 12.5706 76.4006 12.5787C76.9509 12.5696 77.4974 12.6702 78.0083 12.8748C78.4633 13.0588 78.8704 13.3438 79.199 13.7083C79.5317 14.0749 79.789 14.5035 79.9562 14.9694C80.2926 15.9973 80.2926 17.1055 79.9562 18.1333C79.7902 18.5998 79.5328 19.0286 79.199 19.3945C78.8637 19.7459 78.458 20.0224 78.0083 20.206C77.4974 20.4106 76.9509 20.5113 76.4006 20.5021C75.8575 20.5103 75.3184 20.4096 74.8149 20.206C74.3632 20.017 73.9531 19.7413 73.6077 19.3945C73.2663 19.0344 73.0078 18.6039 72.8505 18.1333C72.4994 17.1079 72.4994 15.9949 72.8505 14.9694V14.9475ZM74.7051 17.3547C74.7526 17.6225 74.8574 17.8769 75.0124 18.1004C75.1467 18.3261 75.3353 18.5146 75.5611 18.6488C75.8215 18.7846 76.1126 18.8507 76.4061 18.8407C76.7067 18.8517 77.0052 18.7857 77.273 18.6488C77.4939 18.5201 77.6818 18.3417 77.8217 18.1278C77.9655 17.9061 78.0643 17.6583 78.1125 17.3986C78.2295 16.8361 78.2295 16.2557 78.1125 15.6932C78.0634 15.4286 77.9648 15.1756 77.8217 14.9475C77.6715 14.7127 77.4593 14.524 77.2085 14.4021C76.9577 14.2802 76.6782 14.2298 76.4006 14.2566C76.1071 14.2466 75.816 14.3127 75.5556 14.4485C75.3316 14.585 75.1435 14.773 75.0069 14.9969C74.8538 15.2194 74.7491 15.4716 74.6996 15.7371C74.6367 16.0143 74.6036 16.2973 74.6009 16.5815C74.6084 16.8422 74.6433 17.1013 74.7051 17.3547Z" fill="#4D5759"/>
<path d="M85.9644 12.8914C86.2582 12.9504 86.5413 13.054 86.8039 13.1985C87.0446 13.3467 87.243 13.5545 87.38 13.8016C87.5318 14.0999 87.6037 14.4324 87.5885 14.7667C87.5957 14.9518 87.5734 15.1369 87.5227 15.315C87.4849 15.4673 87.4178 15.6107 87.3251 15.7373C87.2512 15.8526 87.1563 15.953 87.0453 16.0334C86.9399 16.115 86.8258 16.1849 86.7051 16.2417C87.0552 16.346 87.3579 16.569 87.5611 16.8723C87.7635 17.1794 87.8669 17.5411 87.8574 17.9087C87.8633 18.2347 87.8056 18.5588 87.6873 18.8628C87.571 19.1392 87.3948 19.3864 87.1715 19.5866C86.9385 19.8025 86.6615 19.9652 86.3594 20.0636C86.0171 20.1812 85.6569 20.2387 85.295 20.2336H81.1139V12.8037H84.9548C85.2933 12.8007 85.6314 12.83 85.9644 12.8914ZM85.0974 15.677C85.2171 15.6457 85.3304 15.5937 85.4321 15.5234C85.5176 15.4653 85.5813 15.3804 85.6132 15.2822C85.6548 15.17 85.6735 15.0507 85.6681 14.9312C85.6722 14.8261 85.6534 14.7214 85.6132 14.6241C85.5739 14.5314 85.5116 14.4503 85.4321 14.3884C85.3351 14.3169 85.2252 14.2647 85.1084 14.2348C84.9405 14.1889 84.7666 14.1685 84.5926 14.1745H83.0508V15.7318H84.5378C84.7256 15.7304 84.9129 15.7121 85.0974 15.677ZM85.2236 18.797C85.3686 18.7465 85.5013 18.6661 85.6132 18.5612C85.7015 18.4826 85.7645 18.3795 85.7943 18.2651C85.8242 18.1655 85.839 18.062 85.8382 17.958C85.8477 17.8012 85.8234 17.6441 85.7668 17.4974C85.7282 17.38 85.6483 17.2807 85.5419 17.2178C85.4243 17.1284 85.2832 17.075 85.1358 17.0642C84.938 17.0333 84.738 17.0186 84.5378 17.0204H83.0508V18.8847H84.5378C84.7696 18.8927 85.0013 18.8631 85.2236 18.797Z" fill="#4D5759"/>
<path d="M88.642 14.9475C88.7975 14.4793 89.054 14.051 89.3934 13.6928C89.7329 13.3346 90.147 13.0554 90.6063 12.8748C91.1079 12.6712 91.6453 12.5706 92.1866 12.5787C92.7386 12.5696 93.287 12.6702 93.7997 12.8748C94.2538 13.0605 94.6606 13.3452 94.9904 13.7083C95.3232 14.0749 95.5805 14.5035 95.7476 14.9694C96.084 15.9973 96.084 17.1055 95.7476 18.1333C95.5816 18.5998 95.3242 19.0286 94.9904 19.3945C94.6601 19.7336 94.2644 20.0022 93.8272 20.1841C93.3144 20.3887 92.7661 20.4893 92.214 20.4802C91.6727 20.4883 91.1353 20.3876 90.6338 20.1841C90.1814 19.9965 89.771 19.7206 89.4266 19.3726C89.0852 19.0124 88.8267 18.582 88.6694 18.1114C88.311 17.0872 88.311 15.9717 88.6694 14.9475H88.642ZM90.4911 17.3547C90.5385 17.6225 90.6433 17.8769 90.7984 18.1004C90.9332 18.3257 91.1217 18.514 91.3471 18.6488C91.6057 18.7839 91.8949 18.85 92.1866 18.8407C92.4873 18.8522 92.7858 18.7861 93.0535 18.6488C93.2752 18.5211 93.4632 18.3425 93.6022 18.1278C93.7501 17.9077 93.8509 17.6594 93.8985 17.3986C94.0082 16.8354 94.0082 16.2564 93.8985 15.6932C93.85 15.4275 93.7493 15.1741 93.6022 14.9475C93.46 14.737 93.2725 14.5609 93.0535 14.4321C92.7826 14.2997 92.4822 14.2392 92.1811 14.2566C91.8894 14.2473 91.6002 14.3134 91.3416 14.4485C91.1176 14.585 90.9294 14.773 90.7929 14.9969C90.6398 15.2194 90.5351 15.4716 90.4856 15.7371C90.4254 16.0147 90.3923 16.2975 90.3868 16.5815C90.3967 16.842 90.4317 17.1009 90.4911 17.3547Z" fill="#4D5759"/>
</g>
<defs>
<clipPath id="clip0_1_15887">
<rect width="96" height="27" fill="white"/>
</clipPath>
</defs>
</svg>
