<svg width="20" height="17" viewBox="0 0 20 17" fill="none" xmlns="http://www.w3.org/2000/svg">
<path fill-rule="evenodd" clip-rule="evenodd" d="M5.93417 2.43992e-06C5.95604 3.63201e-06 5.97798 4.82411e-06 6 4.82411e-06L14.0658 2.43992e-06C14.9523 -4.73896e-05 15.7161 -9.01893e-05 16.3278 0.0821453C16.9833 0.170277 17.6117 0.369022 18.1213 0.878684C18.631 1.38835 18.8297 2.0167 18.9179 2.67221C19.0001 3.28387 19.0001 4.04767 19 4.93414V9.06587C19.0001 9.95234 19.0001 10.7161 18.9179 11.3278C18.8297 11.9833 18.631 12.6117 18.1213 13.1213C17.6117 13.631 16.9833 13.8297 16.3278 13.9179C15.7161 14.0001 14.9523 14.0001 14.0658 14H5.93417C5.04768 14.0001 4.28387 14.0001 3.67221 13.9179C3.01669 13.8297 2.38834 13.631 1.87868 13.1213C1.36902 12.6117 1.17027 11.9833 1.08214 11.3278C0.999905 10.7161 0.999948 9.95232 0.999998 9.06583L1 5C1 4.97799 0.999999 4.95604 0.999998 4.93417C0.999948 4.04769 0.999905 3.28387 1.08214 2.67221C1.17027 2.0167 1.36902 1.38835 1.87868 0.878684C2.38834 0.369022 3.01669 0.170277 3.67221 0.0821453C4.28387 -9.01893e-05 5.04768 -4.73896e-05 5.93417 2.43992e-06ZM3.9387 2.06431C3.50496 2.12263 3.36902 2.21677 3.29289 2.2929C3.21677 2.36902 3.12262 2.50497 3.06431 2.93871C3.00212 3.40122 3 4.02893 3 5V9C3 9.97108 3.00212 10.5988 3.06431 11.0613C3.12262 11.495 3.21677 11.631 3.29289 11.7071C3.36902 11.7832 3.50496 11.8774 3.9387 11.9357C4.40121 11.9979 5.02892 12 6 12H14C14.9711 12 15.5988 11.9979 16.0613 11.9357C16.495 11.8774 16.631 11.7832 16.7071 11.7071C16.7832 11.631 16.8774 11.495 16.9357 11.0613C16.9979 10.5988 17 9.97108 17 9V5.00001C17 4.02893 16.9979 3.40122 16.9357 2.93871C16.8774 2.50497 16.7832 2.36902 16.7071 2.2929C16.631 2.21677 16.495 2.12263 16.0613 2.06431C15.5988 2.00213 14.9711 2 14 2H6C5.02892 2 4.40121 2.00213 3.9387 2.06431Z" fill="#222222"/>
<path fill-rule="evenodd" clip-rule="evenodd" d="M0 16C0 15.4477 0.447715 15 1 15H19C19.5523 15 20 15.4477 20 16C20 16.5523 19.5523 17 19 17H1C0.447715 17 0 16.5523 0 16Z" fill="#222222"/>
</svg>
