<svg width="14" height="20" viewBox="0 0 14 20" fill="none" xmlns="http://www.w3.org/2000/svg">
<path fill-rule="evenodd" clip-rule="evenodd" d="M4.93417 2.43992e-06C4.95604 3.63201e-06 4.97799 4.82411e-06 5 4.82411e-06L9.06583 2.43992e-06C9.95232 -4.73896e-05 10.7161 -9.01893e-05 11.3278 0.0821453C11.9833 0.170277 12.6117 0.369022 13.1213 0.878684C13.631 1.38835 13.8297 2.0167 13.9179 2.67221C14.0001 3.28387 14.0001 4.04769 14 4.93417V15.0658C14.0001 15.9523 14.0001 16.7161 13.9179 17.3278C13.8297 17.9833 13.631 18.6117 13.1213 19.1213C12.6117 19.631 11.9833 19.8297 11.3278 19.9179C10.7161 20.0001 9.95231 20.0001 9.06581 20H4.9342C4.0477 20.0001 3.28388 20.0001 2.67221 19.9179C2.0167 19.8297 1.38835 19.631 0.878684 19.1213C0.369022 18.6117 0.170277 17.9833 0.0821453 17.3278C-9.01893e-05 16.7161 -4.73896e-05 15.9523 2.43993e-06 15.0658L4.82411e-06 5C4.82411e-06 4.97799 3.63202e-06 4.95604 2.43993e-06 4.93417C-4.73896e-05 4.04769 -9.01893e-05 3.28387 0.0821453 2.67221C0.170277 2.0167 0.369022 1.38835 0.878684 0.878684C1.38835 0.369022 2.0167 0.170277 2.67221 0.0821453C3.28387 -9.01893e-05 4.04769 -4.73896e-05 4.93417 2.43992e-06ZM2.93871 2.06431C2.50497 2.12263 2.36902 2.21677 2.2929 2.2929C2.21677 2.36902 2.12263 2.50497 2.06431 2.93871C2.00213 3.40121 2 4.02893 2 5V15C2 15.9711 2.00213 16.5988 2.06431 17.0613C2.12263 17.495 2.21677 17.631 2.2929 17.7071C2.36902 17.7832 2.50497 17.8774 2.93871 17.9357C3.40122 17.9979 4.02893 18 5 18H9C9.97108 18 10.5988 17.9979 11.0613 17.9357C11.495 17.8774 11.631 17.7832 11.7071 17.7071C11.7832 17.631 11.8774 17.495 11.9357 17.0613C11.9979 16.5988 12 15.9711 12 15V5C12 4.02893 11.9979 3.40122 11.9357 2.93871C11.8774 2.50497 11.7832 2.36902 11.7071 2.2929C11.631 2.21677 11.495 2.12263 11.0613 2.06431C10.5988 2.00213 9.97108 2 9 2H5C4.02893 2 3.40122 2.00213 2.93871 2.06431Z" fill="white"/>
<path fill-rule="evenodd" clip-rule="evenodd" d="M5.5 16C5.5 15.4477 5.94772 15 6.5 15H7.5C8.05229 15 8.5 15.4477 8.5 16C8.5 16.5523 8.05229 17 7.5 17H6.5C5.94772 17 5.5 16.5523 5.5 16Z" fill="white"/>
</svg>
