<svg width="20" height="18" viewBox="0 0 20 18" fill="none" xmlns="http://www.w3.org/2000/svg">
<path fill-rule="evenodd" clip-rule="evenodd" d="M5.93417 0.500002C5.95604 0.500004 5.97798 0.500005 6 0.500005L14.0658 0.500002C14.9523 0.499953 15.7161 0.49991 16.3278 0.582145C16.9833 0.670277 17.6117 0.869022 18.1213 1.37868C18.631 1.88835 18.8297 2.5167 18.9179 3.17221C19.0001 3.78387 19.0001 4.54767 19 5.43414V9.56587C19.0001 10.4523 19.0001 11.2161 18.9179 11.8278C18.8297 12.4833 18.631 13.1117 18.1213 13.6213C17.6117 14.131 16.9833 14.3297 16.3278 14.4179C15.7161 14.5001 14.9523 14.5001 14.0658 14.5H5.93417C5.04768 14.5001 4.28387 14.5001 3.67221 14.4179C3.01669 14.3297 2.38834 14.131 1.87868 13.6213C1.36902 13.1117 1.17027 12.4833 1.08214 11.8278C0.999905 11.2161 0.999948 10.4523 0.999998 9.56583L1 5.5C1 5.47799 0.999999 5.45604 0.999998 5.43417C0.999948 4.54769 0.999905 3.78387 1.08214 3.17221C1.17027 2.5167 1.36902 1.88835 1.87868 1.37868C2.38834 0.869022 3.01669 0.670277 3.67221 0.582145C4.28387 0.49991 5.04768 0.499953 5.93417 0.500002ZM3.9387 2.56431C3.50496 2.62263 3.36902 2.71677 3.29289 2.7929C3.21677 2.86902 3.12262 3.00497 3.06431 3.43871C3.00212 3.90122 3 4.52893 3 5.5V9.5C3 10.4711 3.00212 11.0988 3.06431 11.5613C3.12262 11.995 3.21677 12.131 3.29289 12.2071C3.36902 12.2832 3.50496 12.3774 3.9387 12.4357C4.40121 12.4979 5.02892 12.5 6 12.5H14C14.9711 12.5 15.5988 12.4979 16.0613 12.4357C16.495 12.3774 16.631 12.2832 16.7071 12.2071C16.7832 12.131 16.8774 11.995 16.9357 11.5613C16.9979 11.0988 17 10.4711 17 9.5V5.50001C17 4.52893 16.9979 3.90122 16.9357 3.43871C16.8774 3.00497 16.7832 2.86902 16.7071 2.7929C16.631 2.71677 16.495 2.62263 16.0613 2.56431C15.5988 2.50213 14.9711 2.5 14 2.5H6C5.02892 2.5 4.40121 2.50213 3.9387 2.56431Z" fill="white"/>
<path fill-rule="evenodd" clip-rule="evenodd" d="M0 16.5C0 15.9477 0.447715 15.5 1 15.5H19C19.5523 15.5 20 15.9477 20 16.5C20 17.0523 19.5523 17.5 19 17.5H1C0.447715 17.5 0 17.0523 0 16.5Z" fill="white"/>
</svg>
