<svg width="60" height="25" viewBox="0 0 60 25" fill="none" xmlns="http://www.w3.org/2000/svg">
<g clip-path="url(#clip0_171_996)">
<path d="M29.8429 11.3064C29.4712 11.1605 28.9851 11.1167 28.4561 11.1167H25.5107V10.183H30.5721V8.57812H23.4375V15.5228H28.2702C28.9422 15.5228 29.4425 15.4645 29.8143 15.3185C30.6007 15.0121 31.1297 14.268 31.1297 13.2905C31.1297 12.2985 30.6293 11.6128 29.8429 11.3064ZM28.8135 13.7136C28.6991 13.7575 28.5418 13.772 28.3416 13.772H25.5107V12.6632H28.3416C28.5704 12.6632 28.7562 12.6779 28.8993 12.7508C29.0708 12.8383 29.1566 12.9988 29.1566 13.203C29.1566 13.4072 29.0566 13.6261 28.8135 13.7136Z" fill="#333333"/>
<path d="M36.9402 8.57812H33.9092L31.1211 15.5228H33.466L33.852 14.5161H36.9974L37.3978 15.5228H39.7284L36.9402 8.57812ZM34.3667 12.9841L35.3533 10.183H35.5105L36.4971 12.9841H34.3667Z" fill="#333333"/>
<path d="M42.3973 12.9405V15.5228H40.3242V8.57812H42.3973V11.1167H45.7287V8.57812H47.8019V15.5228H45.7287V12.9405H42.3973Z" fill="#333333"/>
<path d="M51.0849 12.8967V15.5228H49.0117V8.57812H51.0849V11.1897H51.6568L54.1589 8.57812H56.761L53.444 11.9046L56.8898 15.5228H54.1303L51.6568 12.8967H51.0849Z" fill="#333333"/>
<path d="M3.01953 4.11719H19.5475V12.5993C19.5475 14.7737 18.4107 16.7831 16.5654 17.8704L11.2835 20.9827L6.00167 17.8704C4.1563 16.7831 3.01953 14.7737 3.01953 12.5993V4.11719Z" fill="#FFDD2D"/>
<path fill-rule="evenodd" clip-rule="evenodd" d="M7.55469 8.57812V11.2162C7.90822 10.8089 8.551 10.5332 9.28594 10.5332H10.0846V13.5999C10.0846 14.4158 9.86737 15.13 9.54503 15.5228H13.0191C12.6974 15.1296 12.4807 14.4164 12.4807 13.6015V10.5332H13.2794C14.0143 10.5332 14.6571 10.8089 15.0106 11.2162V8.57812H7.55469Z" fill="#333333"/>
</g>
<defs>
<clipPath id="clip0_171_996">
<rect width="54" height="17" fill="white" transform="translate(3 4)"/>
</clipPath>
</defs>
</svg>
