<svg width="49" height="48" viewBox="0 0 49 48" fill="none" xmlns="http://www.w3.org/2000/svg">
<g clip-path="url(#clip0_1_15851)">
<path d="M24.6667 8C15.8347 8 8.66675 15.168 8.66675 24C8.66675 32.832 15.8347 40 24.6667 40C33.4987 40 40.6667 32.832 40.6667 24C40.6667 15.168 33.4987 8 24.6667 8ZM32.0907 18.88C31.8507 21.408 30.8108 27.552 30.2828 30.384C30.0588 31.584 29.6108 31.984 29.1947 32.032C28.2668 32.112 27.5627 31.424 26.6667 30.832C25.2588 29.904 24.4587 29.328 23.0988 28.432C21.5147 27.392 22.5387 26.816 23.4507 25.888C23.6907 25.648 27.7867 21.92 27.8667 21.584C27.8779 21.5331 27.8764 21.4803 27.8624 21.4301C27.8485 21.3799 27.8225 21.3339 27.7867 21.296C27.6907 21.216 27.5627 21.248 27.4507 21.264C27.3067 21.296 25.0667 22.784 20.6987 25.728C20.0587 26.16 19.4827 26.384 18.9707 26.368C18.3947 26.352 17.3067 26.048 16.4907 25.776C15.4827 25.456 14.6987 25.28 14.7627 24.72C14.7947 24.432 15.1947 24.144 15.9467 23.84C20.6187 21.808 23.7227 20.464 25.2747 19.824C29.7227 17.968 30.6348 17.648 31.2428 17.648C31.3708 17.648 31.6748 17.68 31.8668 17.84C32.0268 17.968 32.0747 18.144 32.0907 18.272C32.0747 18.368 32.1068 18.656 32.0907 18.88Z" fill="url(#paint0_linear_1_15851)"/>
<path d="M32.0922 18.8804C31.8522 21.4084 30.8122 27.5524 30.2842 30.3844C30.0602 31.5844 29.6122 31.9844 29.1962 32.0324C28.2682 32.1124 27.5642 31.4244 26.6682 30.8324C25.2602 29.9044 24.4602 29.3284 23.1002 28.4324C21.5162 27.3924 22.5402 26.8164 23.4522 25.8884C23.6922 25.6484 27.7882 21.9204 27.8682 21.5844C27.8793 21.5335 27.8778 21.4807 27.8638 21.4305C27.8499 21.3803 27.8239 21.3343 27.7882 21.2964C27.6922 21.2164 27.5642 21.2484 27.4522 21.2644C27.3082 21.2964 25.0682 22.7844 20.7002 25.7284C20.0602 26.1604 19.4842 26.3844 18.9722 26.3684C18.3962 26.3524 17.3082 26.0484 16.4922 25.7764C15.4842 25.4564 14.7002 25.2804 14.7642 24.7204C14.7962 24.4324 15.1962 24.1444 15.9482 23.8404C20.6202 21.8084 23.7242 20.4644 25.2762 19.8244C29.7242 17.9684 30.6362 17.6484 31.2442 17.6484C31.3722 17.6484 31.6762 17.6804 31.8682 17.8404C32.0282 17.9684 32.0762 18.1444 32.0922 18.2724C32.0762 18.3684 32.1082 18.6564 32.0922 18.8804Z" fill="white"/>
</g>
<defs>
<linearGradient id="paint0_linear_1_15851" x1="1608.67" y1="8" x2="1608.67" y2="3208" gradientUnits="userSpaceOnUse">
<stop stop-color="#2AABEE"/>
<stop offset="1" stop-color="#229ED9"/>
</linearGradient>
<clipPath id="clip0_1_15851">
<rect width="32" height="32" fill="white" transform="translate(8.66675 8)"/>
</clipPath>
</defs>
</svg>
