<svg width="49" height="48" viewBox="0 0 49 48" fill="none" xmlns="http://www.w3.org/2000/svg">
<g clip-path="url(#clip0_1_15850)">
<path d="M39.9607 15.7582C39.7771 15.0317 39.4191 14.3694 38.9221 13.8373C38.4252 13.3051 37.8068 12.9217 37.1284 12.7252C34.6449 12 24.6505 12 24.6505 12C24.6505 12 14.6558 12.022 12.1727 12.7472C11.4944 12.9438 10.8759 13.3272 10.3791 13.8593C9.88216 14.3915 9.52412 15.0537 9.3406 15.7802C8.58942 20.5056 8.29799 27.7056 9.36115 32.2418C9.54467 32.9683 9.90271 33.6305 10.3996 34.1627C10.8965 34.6948 11.5149 35.0782 12.1932 35.2748C14.6766 36 24.6711 36 24.6711 36C24.6711 36 34.6656 36 37.1489 35.2748C37.8273 35.0782 38.4457 34.6948 38.9426 34.1627C39.4395 33.6305 39.7975 32.9683 39.981 32.2418C40.7731 27.5099 41.0176 20.3141 39.9607 15.7582Z" fill="#FF0000"/>
<path d="M21.4694 29.1436L29.7605 24.0008L21.4694 18.8578V29.1436Z" fill="white"/>
</g>
<defs>
<clipPath id="clip0_1_15850">
<rect width="32" height="32" fill="white" transform="translate(8.66675 8)"/>
</clipPath>
</defs>
</svg>
