<svg width="99" height="25" viewBox="0 0 99 25" fill="none" xmlns="http://www.w3.org/2000/svg">
<g clip-path="url(#clip0_171_1004)">
<path d="M21.5034 2.5C16.0918 2.5 11.7734 6.8731 11.7734 12.2301C11.7734 17.5871 16.1465 21.9602 21.5034 21.9602C26.8605 21.9602 31.2335 17.5871 31.2335 12.2301C31.2882 6.8731 26.8605 2.5 21.5034 2.5ZM21.5034 15.8926C19.5355 15.8926 17.841 14.2527 17.841 12.2301C17.841 10.2076 19.4809 8.5677 21.5034 8.5677C23.526 8.5677 25.1659 10.2076 25.1659 12.2301C25.1659 14.2527 23.526 15.8926 21.5034 15.8926Z" fill="#8B3FFD"/>
<path d="M11.7196 5.28906V19.5025H8.22097L3.79297 5.28906H11.7196Z" fill="#8B3FFD"/>
<path d="M94.0404 8.85938L91.8536 14.1621C91.7988 14.2167 91.7988 14.326 91.7988 14.4354L91.7445 14.5447L91.6896 14.4354C91.6896 14.3807 91.6348 14.2714 91.6348 14.1621L89.4485 8.85938H86.6602L90.3229 17.9341L88.7923 21.3781H91.58L96.719 8.85938H94.0404Z" fill="black"/>
<path d="M73.5437 9.3523C73.0519 8.9697 72.4505 8.751 71.6852 8.6963C70.4276 8.587 69.2796 9.02431 68.46 9.78971V8.8057H65.9453V17.8804H68.46V13.1243C68.46 12.0857 68.6239 11.7577 68.8426 11.539C69.1705 11.047 69.7171 10.7737 70.3733 10.7737C71.029 10.7737 71.6852 11.1017 71.9582 11.5937C72.1226 11.9764 72.2318 12.4683 72.2318 12.687V17.8804H74.7465V12.359C74.8013 10.9377 74.3638 9.9537 73.5437 9.3523Z" fill="black"/>
<path d="M61.1344 8.9087C59.8768 8.4714 58.5649 8.5261 57.3078 9.0728C56.4877 9.4554 55.7772 10.0567 55.3397 10.8767C54.9022 11.5327 54.7383 12.4074 54.7383 13.3367C54.7383 14.2661 54.9022 15.1407 55.3397 15.7967C55.7772 16.4527 56.3238 17.1087 57.0891 17.4367C57.8544 17.8194 58.674 18.0381 59.4942 18.0381C59.9316 18.0381 60.3691 17.9834 60.8061 17.8741C61.1887 17.7647 61.5714 17.6007 61.8997 17.4367C62.6651 16.9994 63.2665 16.4527 63.6491 15.7967C64.0861 15.1407 64.25 14.2661 64.25 13.3367C64.3048 11.3141 63.102 9.5647 61.1344 8.9087ZM61.8997 13.5007C61.8449 14.3207 61.5714 14.9767 61.0796 15.4141C60.697 15.7421 60.1504 15.906 59.4942 15.9608C58.8385 15.9608 58.3462 15.7967 57.9087 15.4141C57.4169 14.9767 57.1434 14.3207 57.0891 13.5007C57.0343 12.5714 57.4169 11.8608 58.0731 11.3141C58.4558 11.0407 58.9476 10.8767 59.4394 10.8767C59.9864 10.8767 60.4234 11.0407 60.8609 11.3141C61.5714 11.7514 61.954 12.5714 61.8997 13.5007Z" fill="black"/>
<path d="M51.784 9.35131C51.2922 8.96861 50.6908 8.75001 49.9255 8.69531H49.488C48.504 8.69531 47.6295 9.13261 46.919 10.0073L46.8094 10.1713H46.5361C46.3721 9.84331 46.0988 9.62461 45.8801 9.40591C45.3881 9.02331 44.7868 8.80461 44.0214 8.75001C42.8734 8.64061 41.9441 9.02331 41.1241 9.84331V8.91391H38.6094V17.9886H41.1241V13.1233C41.1241 12.1393 41.2334 11.866 41.4521 11.5926C41.7801 11.1006 42.3268 10.7726 42.9281 10.8273C43.5294 10.8273 44.0761 11.1553 44.4041 11.6473C44.6774 12.0299 44.6774 12.4673 44.6774 12.9046V17.9886H47.192V13.1233C47.192 12.194 47.3017 11.866 47.5199 11.5926C47.8483 11.1006 48.3948 10.8273 48.9962 10.8273C49.5976 10.8273 50.0894 11.1553 50.4173 11.6473C50.5812 11.9753 50.6908 12.3033 50.6908 12.5766V17.9886H53.2055V12.3033C53.2055 11.8113 53.1507 11.3193 53.0416 10.882C52.7132 10.2806 52.3854 9.73391 51.784 9.35131Z" fill="black"/>
<path d="M84.3109 15.1468C83.9282 15.5294 83.0538 16.1854 81.9058 16.2401C80.9218 16.2948 80.1564 15.9668 79.6098 15.4201C79.3363 15.1468 79.1724 14.8188 79.0627 14.4361H86.0603V14.3815C86.1151 13.9988 86.1699 13.7254 86.1699 13.3428C86.1699 13.0148 86.1151 12.5775 86.0055 12.0308C85.6776 10.9921 85.0762 10.1721 84.2561 9.5708C83.3268 8.9148 82.4524 8.6961 82.2337 8.6961C80.4295 8.3681 78.407 9.1881 77.3682 10.8828C76.6029 12.0308 76.7125 13.2335 76.7125 13.6161C76.7125 14.0535 76.7668 15.4201 77.8605 16.6228C79.1724 18.0441 80.9218 18.0988 81.5231 18.1535C83.983 18.2081 85.6776 16.6775 86.0055 16.3495L84.3109 15.1468ZM79.9925 11.3201C80.3752 11.0468 80.8121 10.8828 81.3592 10.8828C81.9058 10.8828 82.3428 11.0468 82.7802 11.3201C83.1629 11.6481 83.4364 11.9761 83.6552 12.4134H79.1724C79.2272 11.9761 79.555 11.5935 79.9925 11.3201Z" fill="black"/>
</g>
<defs>
<clipPath id="clip0_171_1004">
<rect width="99" height="20" fill="white" transform="translate(0 2.5)"/>
</clipPath>
</defs>
</svg>
