<svg width="49" height="49" viewBox="0 0 49 49" fill="none" xmlns="http://www.w3.org/2000/svg">
<g clip-path="url(#clip0_171_1129)">
<path d="M8.66699 23.86C8.66699 16.6192 8.66699 12.9988 10.9164 10.7494C13.1658 8.5 16.7862 8.5 24.027 8.5H25.307C32.5478 8.5 36.1681 8.5 38.4176 10.7494C40.667 12.9988 40.667 16.6192 40.667 23.86V25.14C40.667 32.3808 40.667 36.0011 38.4176 38.2506C36.1681 40.5 32.5478 40.5 25.307 40.5H24.027C16.7862 40.5 13.1658 40.5 10.9164 38.2506C8.66699 36.0011 8.66699 32.3808 8.66699 25.14V23.86Z" fill="#0077FF"/>
<path d="M25.6937 31.5534C18.4003 31.5534 14.2404 26.5534 14.0671 18.2334H17.7204C17.8404 24.3401 20.5337 26.9267 22.667 27.4601V18.2334H26.1071V23.5001C28.2138 23.2734 30.4269 20.8734 31.1735 18.2334H34.6136C34.0403 21.4867 31.6403 23.8867 29.9336 24.8734C31.6403 25.6734 34.3737 27.7667 35.4137 31.5534H31.6269C30.8136 29.0201 28.7871 27.0601 26.1071 26.7934V31.5534H25.6937Z" fill="white"/>
</g>
<defs>
<clipPath id="clip0_171_1129">
<rect width="32" height="32" fill="white" transform="translate(8.66699 8.5)"/>
</clipPath>
</defs>
</svg>
