<svg width="74" height="49" viewBox="0 0 74 49" fill="none" xmlns="http://www.w3.org/2000/svg">
<path d="M9.96165 18.7423V24.5509C9.96165 25.0283 10.1151 25.3466 10.3453 25.5853C10.5755 25.824 10.8824 25.9036 11.3428 25.9832H13.0308V29.2455C10.6522 29.4842 9.04091 29.3251 8.04345 28.5294C7.04598 27.8133 6.58561 26.4606 6.58561 24.5509V18.7423H4.20703V15.3208H6.50888V12.5359L9.96165 11.4219V15.3208H13.0308V18.7423H9.96165Z" fill="#080A0A"/>
<path d="M28.9127 22.3219C28.9127 20.2531 28.2988 18.5025 26.9944 17.0703C25.7668 15.638 24.1555 14.9219 22.1606 14.9219C20.0889 14.9219 18.4009 15.638 17.0965 17.0703C15.7921 18.5025 15.1016 20.2531 15.1016 22.3219C15.1016 24.3907 15.7921 26.2208 17.0965 27.5735C18.4776 28.9262 20.2424 29.6423 22.4675 29.6423C24.9995 29.6423 26.9944 28.6875 28.2988 26.6982L25.5366 25.0273C24.8461 25.9025 23.8486 26.3799 22.5442 26.3799C20.4725 26.3799 19.2449 25.5047 18.7845 23.7541H28.9127C28.9894 23.1971 29.0661 22.7197 28.9127 22.3219ZM18.7078 20.9692C18.938 20.0939 19.3216 19.4574 19.8587 18.9004C20.4725 18.423 21.2398 18.1842 22.1606 18.1842C23.0046 18.1842 23.6951 18.423 24.309 18.9004C24.9228 19.3778 25.3064 20.0939 25.5366 20.9692H18.7078Z" fill="#080A0A"/>
<path d="M35.7418 8.95312V22.9574C34.6676 23.8327 33.5167 24.7875 32.2891 25.6628V8.95312H35.7418Z" fill="#080A0A"/>
<path d="M43.1793 8.95312V16.1144C42.1051 17.2284 40.9542 18.3424 39.7266 19.4564V8.95312H43.1793Z" fill="#080A0A"/>
<path d="M43.1793 23.2734V29.2412H39.7266V26.7745C40.9542 25.6605 42.1051 24.467 43.1793 23.2734Z" fill="#080A0A"/>
<path d="M46.4048 39.4234C46.4048 37.3546 45.791 35.6041 44.4866 34.1718C43.259 32.7396 41.6477 32.0234 39.6528 32.0234C37.5811 32.0234 35.8931 32.7396 34.5887 34.1718C33.2843 35.6041 32.5938 37.3546 32.5938 39.4234C32.5938 41.4923 33.2843 43.3224 34.5887 44.6751C35.9698 46.0277 37.7345 46.7439 39.9597 46.7439C42.4917 46.7439 44.4866 45.789 45.791 43.7998L43.0288 42.1288C42.3382 43.0041 41.3408 43.4815 40.0364 43.4815C37.9647 43.4815 36.7371 42.6062 36.2767 40.8557H46.4048C46.4816 40.2987 46.5583 39.8213 46.4048 39.4234ZM36.2 38.0707C36.4302 37.1955 36.8138 36.5589 37.3509 36.0019C37.9647 35.5245 38.732 35.2858 39.6528 35.2858C40.4968 35.2858 41.1873 35.5245 41.8011 36.0019C42.415 36.4794 42.7986 37.1955 43.0288 38.0707H36.2Z" fill="#080A0A"/>
<path d="M69.6525 37.8384V46.432H66.1997V38.0771C66.1997 37.2814 65.9695 36.5653 65.5859 36.1674C65.2022 35.69 64.6651 35.4513 63.8979 35.4513C63.1306 35.4513 62.5167 35.69 62.0564 36.247C61.596 36.804 61.3658 37.5997 61.3658 38.5545V46.3524H57.9898V38.0771C57.9898 37.2814 57.7596 36.5653 57.376 36.1674C56.9923 35.69 56.4552 35.4513 55.6879 35.4513C54.9206 35.4513 54.3068 35.69 53.8464 36.247C53.3861 36.804 53.1559 37.5997 53.1559 38.5545V46.3524H49.7031V32.4277H53.1559V33.9395C53.9232 32.6664 55.2276 32.1094 56.9156 32.1094C58.6036 32.1094 59.8313 32.7459 60.5985 34.0986C61.4426 32.7459 62.8237 32.1094 64.5884 32.1094C66.123 32.1094 67.3506 32.6664 68.2714 33.7008C69.1921 34.7352 69.6525 36.1674 69.6525 37.8384Z" fill="#080A0A"/>
<path d="M47.9387 14.285C47.7853 14.5237 47.6318 14.6829 47.5551 14.9216C46.2507 16.8313 44.7929 18.6614 43.2583 20.4119C42.1841 21.6055 41.0332 22.8786 39.8055 24.0721C38.5779 25.3453 37.2735 26.6184 35.8157 27.8915C35.2786 28.3689 34.8182 28.7668 34.2811 29.2442C33.2069 30.199 32.1327 31.1539 30.905 32.1087C30.3679 32.5065 29.6007 32.427 29.217 31.87C28.8334 31.313 28.9868 30.5969 29.5239 30.199C30.5214 29.4829 31.4421 28.8463 32.2861 28.1302C33.5138 27.2549 34.6647 26.3797 35.7389 25.5044C37.12 24.3904 38.5011 23.2764 39.7288 22.1625C40.9564 21.128 42.1074 20.0141 43.1816 18.9797C44.7929 17.3883 46.2507 15.7969 47.6318 14.1259C47.7853 13.8872 48.0154 14.0463 47.9387 14.285Z" fill="#29AAEC"/>
<path fill-rule="evenodd" clip-rule="evenodd" d="M58.223 2.58594C56.7651 6.96228 55.3073 11.3386 53.7727 15.715C53.2356 14.8397 52.6985 13.9644 52.1614 13.0892C52.008 12.7709 51.7778 12.4526 51.5476 12.1343C51.3174 11.7365 51.0872 11.3386 50.857 10.9408L54.54 6.644L55.3073 5.76873C55.1538 5.8483 55.0004 6.00744 54.8469 6.08701C53.8494 6.72357 52.852 7.4397 51.8545 8.15583C51.0872 8.71282 50.2432 9.26981 49.4759 9.8268L48.8621 9.50852L45.793 7.75798C47.7112 6.96228 49.7061 6.16658 51.6243 5.37088C53.0822 4.73432 54.54 4.17734 55.9978 3.62035C56.6884 3.2225 57.4557 2.90422 58.223 2.58594Z" fill="#29AAEC"/>
</svg>
